$MeshFormat
2.2 0 8
$EndMeshFormat
$PhysicalNames
7
1 10 "Bottom"
1 11 "Left"
1 12 "Inf"
2 1 "Core"
2 2 "Air"
2 3 "AirInf"
2 4 "CoilRight"
$EndPhysicalNames
$Nodes
136
1 0.2 0 0
2 5.890305264509067e-15 0.2 0
3 2.061566638051211e-15 0.25 0
4 0.25 0 0
5 0.1 0 0
6 0.1 0.05 0
7 0.075 0.05 0
8 0.075 0 0
9 0.05 0 0
10 0.05 0.1 0
11 0 0.1 0
12 0 0 0
13 0.1949855824363647 0.04450418679126288 0
14 0.1801937735804838 0.08677674782351164 0
15 0.156366296493606 0.1246979603717467 0
16 0.1246979603717467 0.156366296493606 0
17 0.08677674782351164 0.1801937735804838 0
18 0.04450418679126289 0.1949855824363647 0
19 0.2451963201008076 0.04877258050403196 0
20 0.2309698831278218 0.09567085809127225 0
21 0.2078674030756365 0.1388925582549002 0
22 0.1767766952966372 0.1767766952966366 0
23 0.1388925582549009 0.2078674030756361 0
24 0.09567085809127271 0.2309698831278216 0
25 0.04877258050403219 0.2451963201008076 0
26 0.1171622320883683 0 0
27 0.1387425912545407 0 0
28 0.1658784563197777 0 0
29 0.1 0.01666666666666668 0
30 0.1 0.03333333333333337 0
31 0.08749999999999998 0.05 0
32 0.075 0.03333333333333331 0
33 0.075 0.01666666666666663 0
34 0.06180340091435824 0 0
35 0.05 0.01428571428571432 0
36 0.05 0.02857142857142866 0
37 0.05 0.04285714285714293 0
38 0.05 0.05714285714285719 0
39 0.05 0.07142857142857148 0
40 0.05 0.08571428571428574 0
41 0.03749999999999997 0.1 0
42 0.02499999999999997 0.1 0
43 0.01249999999999998 0.1 0
44 0 0.1635471522725896 0
45 0 0.1361302102012731 0
46 0 0.1155093645381463 0
47 0.08750000000000002 0 0
48 0.01250000000000003 0 0
49 0.02500000000000003 0 0
50 0.03750000000000002 0 0
51 0 0.08571428571428569 0
52 0 0.07142857142857134 0
53 0 0.05714285714285708 0
54 0 0.04285714285714282 0
55 0 0.02857142857142853 0
56 0 0.01428571428571429 0
57 0.01263645357133009 0.03584302134214878 0
58 0.03757150206211331 0.064118630462712 0
59 0.01272886332786727 0.07919294593798522 0
60 0.03723958900298256 0.02083411436989732 0
61 0.01907300412187277 0.01017039193731412 0
62 0.03092699329693561 0.08982916761120144 0
63 0.0376179785104182 0.03556242792093103 0
64 0.02496178083296305 0.02930014207841364 0
65 0.02520007799369546 0.04297029478201536 0
66 0.01271409128883674 0.05007584941402822 0
67 0.01226165182080269 0.06447648177593604 0
68 0.02517099232826484 0.07066993278217 0
69 0.03762600290616031 0.04996573118729233 0
70 0.02509071973331224 0.05704615340069233 0
71 0.0129289235505157 0.02087434583245086 0
72 0.03711974941038859 0.07911546038255675 0
73 0.0191481622998943 0.09017926513315522 0
74 0.0308465767438571 0.009824731058093311 0
75 0.008900385534477695 0.009066090411095851 0
76 0.04110934854146484 0.09093178274160879 0
77 0.04111723314936794 0.008988911942740985 0
78 0.008875405125552294 0.09101729935708522 0
79 0.02501895213267012 0.08179735436941372 0
80 0.02500997485043824 0.01820074505523386 0
81 0.08749999999999999 0.02499999999999999 0
82 0.08819444444444438 0.03749999999999998 0
83 0.08680555555555555 0.01249999999999998 0
84 0.02439095640929748 0.2221542692044075 0
85 0.2221542692044074 0.02439095640929745 0
86 0.09601848753343961 0.06029134669908923 0
87 0.04602439887087648 0.1112991827465656 0
88 0.06222747760134394 0.09204939747880846 0
89 0.1126295371385231 0.04166666666666667 0
90 0.1147923964160083 0.05812136121933989 0
91 0.06088001538267053 0.1069413415820473 0
92 0.07559747782806865 0.0998768763669603 0
93 0.1045149397736933 0.0770503684052202 0
94 0.02474905405152018 0.1501177159947248 0
95 0.1523105237871592 0.02109474388042977 0
96 0.05869160910889912 0.1235579670750736 0
97 0.07481617077024572 0.08407470534476005 0
98 0.1265668196383987 0.0466821609146835 0
99 0.01784887046683808 0.1113735194267177 0
100 0.06115319618522749 0.06453986276851553 0
101 0.09064464568506647 0.09024859284249781 0
102 0.09123489796113282 0.1096924558318262 0
103 0.1104318712044561 0.09849908702896587 0
104 0.1268571981969004 0.08244894993242165 0
105 0.1281119089582417 0.01811440373325687 0
106 0.03891318631309083 0.1281775738592789 0
107 0.05220869430548487 0.1440430926385976 0
108 0.08011182637102016 0.1326534690280863 0
109 0.06154770944736715 0.05174298003263808 0
110 0.08157936090429835 0.06060582773663614 0
111 0.08663335226973827 0.07394160759596818 0
112 0.06173722558475056 0.07819760454709115 0
113 0.0187016268418794 0.130388453268493 0
114 0.1633479733013685 0.05188246479089666 0
115 0.06199732402759604 0.02280179551175143 0
116 0.03066468041544747 0.1135397882168425 0
117 0.1137024246577958 0.125978008968872 0
118 0.06225750557916054 0.03821778005104906 0
119 0.1129213916203225 0.02523285415435908 0
120 0.07285841244248745 0.07012540366407986 0
121 0.04266333894169484 0.1661302806716285 0
122 0.07330316533035826 0.1145444219767987 0
123 0.175304507168934 0.02349627909251786 0
124 0.02238331595689559 0.1749561462750615 0
125 0.1400789127880901 0.03667224417681982 0
126 0.1323626901793675 0.1038209636669598 0
127 0.06023617449118261 0.0107241645771925 0
128 0.07042773579587608 0.05940281484037392 0
129 0.1116391065333865 0.01200278491085655 0
130 0.1376831601141409 0.06054799884449241 0
131 0.150893413891864 0.08572964694151569 0
132 0.008315551109279729 0.1094942463901775 0
133 0.06740318654042003 0.1615552518981957 0
134 0.09453842915289887 0.1513493599938488 0
135 0.01122888507956063 0.1205883479860235 0
136 0.1232580437087551 0.0336091959616002 0
$EndNodes
$Elements
270
1 1 2 11 2 3 2
2 1 2 12 3 4 19
3 1 2 12 3 19 20
4 1 2 12 3 20 21
5 1 2 12 3 21 22
6 1 2 12 3 22 23
7 1 2 12 3 23 24
8 1 2 12 3 24 25
9 1 2 12 3 25 3
10 1 2 10 4 1 4
11 1 2 10 5 5 26
12 1 2 10 5 26 27
13 1 2 10 5 27 28
14 1 2 10 5 28 1
15 1 2 10 9 9 34
16 1 2 10 9 34 8
17 1 2 11 12 2 44
18 1 2 11 12 44 45
19 1 2 11 12 45 46
20 1 2 11 12 46 11
21 1 2 10 13 8 47
22 1 2 10 13 47 5
23 1 2 10 14 12 48
24 1 2 10 14 48 49
25 1 2 10 14 49 50
26 1 2 10 14 50 9
27 1 2 11 15 11 51
28 1 2 11 15 51 52
29 1 2 11 15 52 53
30 1 2 11 15 53 54
31 1 2 11 15 54 55
32 1 2 11 15 55 56
33 1 2 11 15 56 12
34 2 2 1 1 58 72 68
35 2 2 1 1 57 71 64
36 2 2 1 1 64 65 57
37 2 2 1 1 54 66 53
38 2 2 1 1 66 70 67
39 2 2 1 1 68 70 58
40 2 2 1 1 67 70 68
41 2 2 1 1 66 67 53
42 2 2 1 1 57 66 54
43 2 2 1 1 65 66 57
44 2 2 1 1 36 63 60
45 2 2 1 1 36 60 35
46 2 2 1 1 52 59 51
47 2 2 1 1 63 64 60
48 2 2 1 1 52 67 59
49 2 2 1 1 58 69 38
50 2 2 1 1 65 70 66
51 2 2 1 1 38 69 37
52 2 2 1 1 67 68 59
53 2 2 1 1 37 63 36
54 2 2 1 1 69 70 65
55 2 2 1 1 37 69 63
56 2 2 1 1 53 67 52
57 2 2 1 1 58 70 69
58 2 2 1 1 55 57 54
59 2 2 1 1 39 58 38
60 2 2 1 1 63 69 65
61 2 2 1 1 56 71 55
62 2 2 1 1 40 72 39
63 2 2 1 1 63 65 64
64 2 2 1 1 42 62 41
65 2 2 1 1 49 61 48
66 2 2 1 1 50 74 49
67 2 2 1 1 43 73 42
68 2 2 1 1 72 79 68
69 2 2 1 1 55 71 57
70 2 2 1 1 39 72 58
71 2 2 1 1 71 80 64
72 2 2 1 1 42 73 62
73 2 2 1 1 49 74 61
74 2 2 1 1 12 75 56
75 2 2 1 1 10 76 40
76 2 2 1 1 51 78 11
77 2 2 1 1 35 77 9
78 2 2 1 1 62 79 72
79 2 2 1 1 61 80 71
80 2 2 1 1 56 75 71
81 2 2 1 1 40 76 72
82 2 2 1 1 48 75 12
83 2 2 1 1 41 76 10
84 2 2 1 1 11 78 43
85 2 2 1 1 9 77 50
86 2 2 1 1 71 75 61
87 2 2 1 1 72 76 62
88 2 2 1 1 64 80 60
89 2 2 1 1 59 78 51
90 2 2 1 1 60 77 35
91 2 2 1 1 68 79 59
92 2 2 1 1 59 79 73
93 2 2 1 1 60 80 74
94 2 2 1 1 74 77 60
95 2 2 1 1 73 78 59
96 2 2 1 1 61 75 48
97 2 2 1 1 62 76 41
98 2 2 1 1 50 77 74
99 2 2 1 1 43 78 73
100 2 2 1 1 73 79 62
101 2 2 1 1 74 80 61
102 2 2 4 2 5 83 47
103 2 2 4 2 7 82 31
104 2 2 4 2 29 83 5
105 2 2 4 2 32 82 7
106 2 2 4 2 31 82 6
107 2 2 4 2 47 83 8
108 2 2 4 2 6 82 30
109 2 2 4 2 8 83 33
110 2 2 4 2 30 81 29
111 2 2 4 2 33 81 32
112 2 2 4 2 81 83 29
113 2 2 4 2 81 82 32
114 2 2 4 2 30 82 81
115 2 2 4 2 33 83 81
116 2 2 3 3 24 18 17
117 2 2 3 3 13 20 14
118 2 2 3 3 25 18 24
119 2 2 3 3 19 20 13
120 2 2 3 3 23 17 16
121 2 2 3 3 14 21 15
122 2 2 3 3 22 16 15
123 2 2 3 3 24 17 23
124 2 2 3 3 20 21 14
125 2 2 3 3 15 21 22
126 2 2 3 3 23 16 22
127 2 2 3 3 25 84 18
128 2 2 3 3 13 85 19
129 2 2 3 3 2 84 3
130 2 2 3 3 4 85 1
131 2 2 3 3 3 84 25
132 2 2 3 3 19 85 4
133 2 2 3 3 1 85 13
134 2 2 3 3 18 84 2
135 2 2 2 4 27 105 26
136 2 2 2 4 99 116 113
137 2 2 2 4 106 107 94
138 2 2 2 4 109 118 7
139 2 2 2 4 33 127 8
140 2 2 2 4 105 129 26
141 2 2 2 4 101 111 93
142 2 2 2 4 6 90 86
143 2 2 2 4 90 104 93
144 2 2 2 4 7 118 32
145 2 2 2 4 113 116 106
146 2 2 2 4 114 125 95
147 2 2 2 4 98 130 90
148 2 2 2 4 102 117 108
149 2 2 2 4 94 113 106
150 2 2 2 4 95 105 27
151 2 2 2 4 93 103 101
152 2 2 2 4 90 130 104
153 2 2 2 4 95 123 114
154 2 2 2 4 2 124 18
155 2 2 2 4 88 112 97
156 2 2 2 4 10 91 87
157 2 2 2 4 45 94 44
158 2 2 2 4 117 126 15
159 2 2 2 4 34 127 9
160 2 2 2 4 97 120 111
161 2 2 2 4 30 89 6
162 2 2 2 4 28 95 27
163 2 2 2 4 93 111 86
164 2 2 2 4 13 123 1
165 2 2 2 4 90 93 86
166 2 2 2 4 97 111 101
167 2 2 2 4 40 88 10
168 2 2 2 4 9 127 35
169 2 2 2 4 107 121 94
170 2 2 2 4 46 135 45
171 2 2 2 4 121 133 18
172 2 2 2 4 108 122 102
173 2 2 2 4 38 109 100
174 2 2 2 4 40 112 88
175 2 2 2 4 38 100 39
176 2 2 2 4 16 117 15
177 2 2 2 4 125 130 98
178 2 2 2 4 111 120 110
179 2 2 2 4 32 115 33
180 2 2 2 4 113 135 99
181 2 2 2 4 88 97 92
182 2 2 2 4 106 116 87
183 2 2 2 4 32 118 115
184 2 2 2 4 45 113 94
185 2 2 2 4 37 109 38
186 2 2 2 4 39 112 40
187 2 2 2 4 100 112 39
188 2 2 2 4 11 132 46
189 2 2 2 4 31 110 7
190 2 2 2 4 93 104 103
191 2 2 2 4 117 134 108
192 2 2 2 4 6 86 31
193 2 2 2 4 94 124 44
194 2 2 2 4 91 96 87
195 2 2 2 4 7 128 109
196 2 2 2 4 1 123 28
197 2 2 2 4 18 133 17
198 2 2 2 4 109 128 100
199 2 2 2 4 115 118 36
200 2 2 2 4 44 124 2
201 2 2 2 4 36 118 37
202 2 2 2 4 35 115 36
203 2 2 2 4 14 114 13
204 2 2 2 4 86 110 31
205 2 2 2 4 42 99 43
206 2 2 2 4 26 129 5
207 2 2 2 4 37 118 109
208 2 2 2 4 5 129 29
209 2 2 2 4 114 130 125
210 2 2 2 4 89 90 6
211 2 2 2 4 41 116 42
212 2 2 2 4 30 119 89
213 2 2 2 4 86 111 110
214 2 2 2 4 29 119 30
215 2 2 2 4 17 134 16
216 2 2 2 4 10 87 41
217 2 2 2 4 115 127 33
218 2 2 2 4 96 106 87
219 2 2 2 4 88 91 10
220 2 2 2 4 15 131 14
221 2 2 2 4 121 124 94
222 2 2 2 4 45 135 113
223 2 2 2 4 120 128 110
224 2 2 2 4 97 101 92
225 2 2 2 4 100 120 112
226 2 2 2 4 95 125 105
227 2 2 2 4 112 120 97
228 2 2 2 4 28 123 95
229 2 2 2 4 119 129 105
230 2 2 2 4 114 123 13
231 2 2 2 4 42 116 99
232 2 2 2 4 101 103 102
233 2 2 2 4 91 122 96
234 2 2 2 4 99 132 43
235 2 2 2 4 88 92 91
236 2 2 2 4 107 133 121
237 2 2 2 4 96 108 107
238 2 2 2 4 87 116 41
239 2 2 2 4 43 132 11
240 2 2 2 4 110 128 7
241 2 2 2 4 35 127 115
242 2 2 2 4 100 128 120
243 2 2 2 4 96 107 106
244 2 2 2 4 99 135 132
245 2 2 2 4 101 102 92
246 2 2 2 4 103 117 102
247 2 2 2 4 89 98 90
248 2 2 2 4 104 126 103
249 2 2 2 4 96 122 108
250 2 2 2 4 119 136 89
251 2 2 2 4 126 131 15
252 2 2 2 4 92 122 91
253 2 2 2 4 103 126 117
254 2 2 2 4 16 134 117
255 2 2 2 4 114 131 130
256 2 2 2 4 14 131 114
257 2 2 2 4 29 129 119
258 2 2 2 4 89 136 98
259 2 2 2 4 125 136 105
260 2 2 2 4 98 136 125
261 2 2 2 4 104 131 126
262 2 2 2 4 132 135 46
263 2 2 2 4 102 122 92
264 2 2 2 4 108 133 107
265 2 2 2 4 130 131 104
266 2 2 2 4 108 134 133
267 2 2 2 4 105 136 119
268 2 2 2 4 18 124 121
269 2 2 2 4 133 134 17
270 2 2 2 4 8 127 34
$EndElements
