$MeshFormat
2.2 0 8
$EndMeshFormat
$PhysicalNames
5
1 2000 "PEC"
1 2001 "Port"
1 2002 "Inf"
2 1000 "Waveguide"
2 1001 "Air"
$EndPhysicalNames
$Nodes
89
1 -0.02 -0.04 0
2 0.02 -0.04 0
3 0.02 0 0
4 -0.02 0 0
5 0.05 0 0
6 -0.022 -0.042 0
7 0.022 -0.042 0
8 0.022 0 0
9 -0.022 0 0
10 -0.006666666666666673 -0.04 0
11 0.006666666666666713 -0.04 0
12 0.02 -0.02666666666666667 0
13 0.02 -0.01333333333333329 0
14 0.006666666666666673 0 0
15 -0.006666666666666713 0 0
16 -0.02 -0.01333333333333333 0
17 -0.02 -0.02666666666666671 0
18 0.04777864028930704 0.0147377587205452 0
19 0.04131193871579976 0.02816600290318108 0
20 0.03117449009293671 0.03909157412340147 0
21 0.01826705121831979 0.0465436874322102 0
22 0.003736504679321264 0.049860189859059 0
23 -0.01112604669781569 0.04874639560909119 0
24 -0.02499999999999997 0.04330127018922195 0
25 -0.0366525935914913 0.03400863688854599 0
26 -0.04504844339512094 0.02169418695587795 0
27 -0.04944154131125642 0.007452113308808846 0
28 -0.04944154131125646 -0.007452113308808548 0
29 -0.04504844339512107 -0.02169418695587768 0
30 -0.03665259359149151 -0.03400863688854577 0
31 -0.02500000000000033 -0.04330127018922175 0
32 -0.01112604669781612 -0.04874639560909109 0
33 0.003736504679320776 -0.04986018985905905 0
34 0.0182670512183194 -0.04654368743221035 0
35 0.03117449009293646 -0.03909157412340167 0
36 0.04131193871579965 -0.02816600290318125 0
37 0.04777864028930701 -0.01473775872054532 0
38 -0.007333333333333341 -0.042 0
39 0.007333333333333317 -0.042 0
40 0.022 -0.02799999999999997 0
41 0.022 -0.01399999999999993 0
42 -0.022 -0.01400000000000003 0
43 -0.022 -0.02800000000000007 0
44 0.021 0.005917840259193645 0
45 -0.02100000000000001 0.00591784025919366 0
46 0.008440885198376736 0.036468778709401 0
47 -0.02299607466266613 0.02927417996940136 0
48 0.02883363996080833 0.003627111053655618 0
49 -1.569786916570654e-06 0.01036765247875624 0
50 -0.0291150736264958 0.003962535952267684 0
51 0.02679216146010691 0.01265311105040885 0
52 0.01750373681500194 0.01470199714730712 0
53 -0.02678838210378133 0.01241636490881777 0
54 -0.01802922963883777 0.01393984260499213 0
55 0.02365632679736675 0.02249340187259505 0
56 -0.02974690618855226 -0.004994560900946322 0
57 0.03054578692761778 -0.006198679794327717 0
58 -0.0368960009680597 0.01062374649269989 0
59 0.03574474009927116 0.009807845779194482 0
60 0.01305902793619492 0.0249643188609039 0
61 -0.03595030863015188 -0.01296200307593914 0
62 -0.03283309100834191 0.02109997232262444 0
63 0.02060185593351659 0.03356222668146178 0
64 0.0008177297828066387 0.02431256192848144 0
65 -0.0041008759405417 0.0376828019021179 0
66 -0.01100499807471224 0.02793381757151421 0
67 0.03354203112644649 -0.01858200778565087 0
68 0.03439813441651615 0.01951648544414833 0
69 -0.01214639951508975 0.007205373612081901 0
70 0.01207557348436164 0.007216310787636313 0
71 0.03715363028087295 -0.0002055311807683274 0
72 -0.009390864417567686 0.01761328670256814 0
73 -0.03920084369101819 -0.0004012239918949168 0
74 -0.02356046398025554 0.01993105305164621 0
75 -0.01484559907514715 0.03738769304826932 0
76 0.008690899646289715 0.016312568240617 0
77 0.0316449731548179 -0.02936224413924778 0
78 0.03022854919122719 0.02856593820495754 0
79 -0.03218776492747034 -0.0229221602958969 0
80 0.04064398441666749 -0.00826393294236402 0
81 -0.01670615275990746 0.02179044627704113 0
82 1.530844871117388e-17 -0.02819233174813933 0
83 -1.499697382240036e-17 -0.01179797501139285 0
84 -0.01010240326864419 -0.01999838445992204 0
85 0.01010240326864419 -0.01999838445992202 0
86 -0.01030720980593257 -0.009692790194067441 0
87 0.01030720980593257 -0.03030720980593256 0
88 -0.01030720980593257 -0.03030720980593259 0
89 0.01030720980593258 -0.009692790194067411 0
$EndNodes
$Elements
178
1 1 2 2001 7 1 10
2 1 2 2001 7 10 11
3 1 2 2001 7 11 2
4 1 2 2000 8 2 12
5 1 2 2000 8 12 13
6 1 2 2000 8 13 3
7 1 2 2000 10 4 16
8 1 2 2000 10 16 17
9 1 2 2000 10 17 1
10 1 2 2002 11 5 18
11 1 2 2002 11 18 19
12 1 2 2002 11 19 20
13 1 2 2002 11 20 21
14 1 2 2002 11 21 22
15 1 2 2002 11 22 23
16 1 2 2002 11 23 24
17 1 2 2002 11 24 25
18 1 2 2002 11 25 26
19 1 2 2002 11 26 27
20 1 2 2002 11 27 28
21 1 2 2002 11 28 29
22 1 2 2002 11 29 30
23 1 2 2002 11 30 31
24 1 2 2002 11 31 32
25 1 2 2002 11 32 33
26 1 2 2002 11 33 34
27 1 2 2002 11 34 35
28 1 2 2002 11 35 36
29 1 2 2002 11 36 37
30 1 2 2002 11 37 5
31 1 2 2000 12 6 38
32 1 2 2000 12 38 39
33 1 2 2000 12 39 7
34 1 2 2000 13 7 40
35 1 2 2000 13 40 41
36 1 2 2000 13 41 8
37 1 2 2000 14 8 3
38 1 2 2000 15 4 9
39 1 2 2000 16 9 42
40 1 2 2000 16 42 43
41 1 2 2000 16 43 6
42 2 2 1001 1 59 71 5
43 2 2 1001 1 41 57 8
44 2 2 1001 1 9 56 42
45 2 2 1001 1 56 73 61
46 2 2 1001 1 18 59 5
47 2 2 1001 1 15 69 4
48 2 2 1001 1 61 73 28
49 2 2 1001 1 3 70 14
50 2 2 1001 1 27 58 26
51 2 2 1001 1 50 73 56
52 2 2 1001 1 8 57 48
53 2 2 1001 1 25 47 24
54 2 2 1001 1 58 73 50
55 2 2 1001 1 4 69 45
56 2 2 1001 1 25 62 47
57 2 2 1001 1 22 46 21
58 2 2 1001 1 29 61 28
59 2 2 1001 1 58 62 26
60 2 2 1001 1 36 77 35
61 2 2 1001 1 44 70 3
62 2 2 1001 1 22 65 46
63 2 2 1001 1 14 49 15
64 2 2 1001 1 35 77 40
65 2 2 1001 1 64 72 49
66 2 2 1001 1 18 68 59
67 2 2 1001 1 66 72 64
68 2 2 1001 1 19 68 18
69 2 2 1001 1 49 76 64
70 2 2 1001 1 37 67 36
71 2 2 1001 1 23 65 22
72 2 2 1001 1 43 79 30
73 2 2 1001 1 40 67 41
74 2 2 1001 1 46 63 21
75 2 2 1001 1 62 74 47
76 2 2 1001 1 46 64 60
77 2 2 1001 1 47 75 24
78 2 2 1001 1 26 62 25
79 2 2 1001 1 56 61 42
80 2 2 1001 1 46 65 64
81 2 2 1001 1 49 69 15
82 2 2 1001 1 42 79 43
83 2 2 1001 1 27 73 58
84 2 2 1001 1 37 80 67
85 2 2 1001 1 64 76 60
86 2 2 1001 1 53 62 58
87 2 2 1001 1 14 70 49
88 2 2 1001 1 55 63 60
89 2 2 1001 1 55 60 52
90 2 2 1001 1 21 63 20
91 2 2 1001 1 60 63 46
92 2 2 1001 1 61 79 42
93 2 2 1001 1 45 54 53
94 2 2 1001 1 65 66 64
95 2 2 1001 1 30 79 29
96 2 2 1001 1 49 72 69
97 2 2 1001 1 28 73 27
98 2 2 1001 1 66 81 72
99 2 2 1001 1 51 52 44
100 2 2 1001 1 66 75 47
101 2 2 1001 1 53 74 62
102 2 2 1001 1 45 69 54
103 2 2 1001 1 5 80 37
104 2 2 1001 1 20 78 19
105 2 2 1001 1 67 80 57
106 2 2 1001 1 41 67 57
107 2 2 1001 1 24 75 23
108 2 2 1001 1 51 55 52
109 2 2 1001 1 40 77 67
110 2 2 1001 1 70 76 49
111 2 2 1001 1 48 59 51
112 2 2 1001 1 57 71 48
113 2 2 1001 1 71 80 5
114 2 2 1001 1 48 51 44
115 2 2 1001 1 45 53 50
116 2 2 1001 1 29 79 61
117 2 2 1001 1 51 68 55
118 2 2 1001 1 53 58 50
119 2 2 1001 1 60 76 52
120 2 2 1001 1 55 78 63
121 2 2 1001 1 59 68 51
122 2 2 1001 1 52 70 44
123 2 2 1001 1 45 50 9
124 2 2 1001 1 47 81 66
125 2 2 1001 1 8 48 44
126 2 2 1001 1 69 72 54
127 2 2 1001 1 50 56 9
128 2 2 1001 1 48 71 59
129 2 2 1001 1 54 74 53
130 2 2 1001 1 65 75 66
131 2 2 1001 1 23 75 65
132 2 2 1001 1 72 81 54
133 2 2 1001 1 63 78 20
134 2 2 1001 1 52 76 70
135 2 2 1001 1 67 77 36
136 2 2 1001 1 68 78 55
137 2 2 1001 1 19 78 68
138 2 2 1001 1 74 81 47
139 2 2 1001 1 54 81 74
140 2 2 1001 1 4 45 9
141 2 2 1001 1 57 80 71
142 2 2 1001 1 8 44 3
143 2 2 1001 1 32 6 31
144 2 2 1001 1 35 7 34
145 2 2 1001 1 6 43 31
146 2 2 1001 1 32 38 6
147 2 2 1001 1 7 39 34
148 2 2 1001 1 40 7 35
149 2 2 1001 1 31 43 30
150 2 2 1001 1 33 38 32
151 2 2 1001 1 34 39 33
152 2 2 1001 1 33 39 38
153 2 2 1000 7 83 84 82
154 2 2 1000 7 82 85 83
155 2 2 1000 7 11 82 10
156 2 2 1000 7 15 83 14
157 2 2 1000 7 17 84 16
158 2 2 1000 7 13 85 12
159 2 2 1000 7 12 87 2
160 2 2 1000 7 2 87 11
161 2 2 1000 7 4 86 15
162 2 2 1000 7 16 86 4
163 2 2 1000 7 10 88 1
164 2 2 1000 7 1 88 17
165 2 2 1000 7 3 89 13
166 2 2 1000 7 14 89 3
167 2 2 1000 7 11 87 82
168 2 2 1000 7 15 86 83
169 2 2 1000 7 83 89 14
170 2 2 1000 7 82 88 10
171 2 2 1000 7 84 88 82
172 2 2 1000 7 83 86 84
173 2 2 1000 7 85 89 83
174 2 2 1000 7 82 87 85
175 2 2 1000 7 17 88 84
176 2 2 1000 7 84 86 16
177 2 2 1000 7 85 87 12
178 2 2 1000 7 13 89 85
$EndElements
