$MeshFormat
2.2 0 8
$EndMeshFormat
$PhysicalNames
5
2 10 "Bottom base plate"
2 11 "Left base plate"
2 12 "Right base plate"
2 13 "Top fins"
3 1 "Radiator"
$EndPhysicalNames
$Nodes
328
1 0 0 0
2 0.008 0 0
3 0.008 0.01 0
4 0 0.01 0
5 0.005 0.01 0
6 0.005 0.05 0
7 0.003 0.05 0
8 0.003 0.01 0
9 0.005 0.01 0.01
10 0.005 0.05 0.01
11 0.003 0.05 0.01
12 0.003 0.01 0.01
13 0 0.01 0.01
14 0 0 0.01
15 0.008 0 0.01
16 0.008 0.01 0.01
17 0.002666666666666666 0 0
18 0.005333333333333332 0 0
19 0.008 0.0025 0
20 0.008 0.005000000000000001 0
21 0.008 0.007500000000000001 0
22 0 0.007500000000000001 0
23 0 0.005000000000000001 0
24 0 0.0025 0
25 0.005 0.01266666666666666 0
26 0.005 0.01533333333333333 0
27 0.005 0.018 0
28 0.005 0.02066666666666666 0
29 0.005 0.02333333333333333 0
30 0.005 0.026 0
31 0.005 0.02866666666666667 0
32 0.005 0.03133333333333333 0
33 0.005 0.034 0
34 0.005 0.03666666666666667 0
35 0.005 0.03933333333333334 0
36 0.005 0.04200000000000001 0
37 0.005 0.04466666666666667 0
38 0.005 0.04733333333333334 0
39 0.003 0.04733333333333334 0
40 0.003 0.04466666666666667 0
41 0.003 0.042 0
42 0.003 0.03933333333333334 0
43 0.003 0.03666666666666667 0
44 0.003 0.034 0
45 0.003 0.03133333333333334 0
46 0.003 0.02866666666666667 0
47 0.003 0.026 0
48 0.003 0.02333333333333334 0
49 0.003 0.02066666666666667 0
50 0.003 0.018 0
51 0.003 0.01533333333333333 0
52 0.003 0.01266666666666667 0
53 0.001499999999999999 0.01 0
54 0.006500000000000001 0.01 0
55 0.005 0.01 0.002499999999999999
56 0.005 0.01 0.004999999999999999
57 0.005 0.01 0.007500000000000001
58 0.005 0.05 0.002499999999999999
59 0.005 0.05 0.004999999999999999
60 0.005 0.05 0.007500000000000001
61 0.005 0.01266666666666666 0.01
62 0.005 0.01533333333333333 0.01
63 0.005 0.018 0.01
64 0.005 0.02066666666666666 0.01
65 0.005 0.02333333333333333 0.01
66 0.005 0.026 0.01
67 0.005 0.02866666666666667 0.01
68 0.005 0.03133333333333333 0.01
69 0.005 0.034 0.01
70 0.005 0.03666666666666667 0.01
71 0.005 0.03933333333333334 0.01
72 0.005 0.04200000000000001 0.01
73 0.005 0.04466666666666667 0.01
74 0.005 0.04733333333333334 0.01
75 0.003 0.05 0.002499999999999999
76 0.003 0.05 0.004999999999999999
77 0.003 0.05 0.007500000000000001
78 0.003 0.01 0.002499999999999999
79 0.003 0.01 0.004999999999999999
80 0.003 0.01 0.007500000000000001
81 0.003 0.04733333333333334 0.01
82 0.003 0.04466666666666667 0.01
83 0.003 0.042 0.01
84 0.003 0.03933333333333334 0.01
85 0.003 0.03666666666666667 0.01
86 0.003 0.034 0.01
87 0.003 0.03133333333333334 0.01
88 0.003 0.02866666666666667 0.01
89 0.003 0.026 0.01
90 0.003 0.02333333333333334 0.01
91 0.003 0.02066666666666667 0.01
92 0.003 0.018 0.01
93 0.003 0.01533333333333333 0.01
94 0.003 0.01266666666666667 0.01
95 0 0.01 0.002499999999999999
96 0 0.01 0.004999999999999999
97 0 0.01 0.007500000000000001
98 0.001499999999999999 0.01 0.01
99 0 0 0.002499999999999999
100 0 0 0.004999999999999999
101 0 0 0.007500000000000001
102 0 0.007500000000000001 0.01
103 0 0.005000000000000001 0.01
104 0 0.0025 0.01
105 0.008 0 0.002499999999999999
106 0.008 0 0.004999999999999999
107 0.008 0 0.007500000000000001
108 0.002666666666666666 0 0.01
109 0.005333333333333332 0 0.01
110 0.008 0.01 0.002499999999999999
111 0.008 0.01 0.004999999999999999
112 0.008 0.01 0.007500000000000001
113 0.008 0.0025 0.01
114 0.008 0.005000000000000001 0.01
115 0.008 0.007500000000000001 0.01
116 0.006500000000000001 0.01 0.01
117 0.005834936490538904 0.006249999999999999 0
118 0.002101081765516624 0.003750192084125942 0
119 0.002440447800488621 0.008321330730727907 0
120 0.005565358124385515 0.008344306085133157 0
121 0.00398827655319565 0.007155557120165475 0
122 0.005940722486496637 0.003812300970804337 0
123 0.002086359646806076 0.006114718894049957 0
124 0.004 0.01133333333333334 0
125 0.003999882102416858 0.002146730474013193 0
126 0.003991876507495125 0.004871583257193151 0
127 0.003998816495613958 0.008764238787205308 0
128 0.004 0.01933333333333333 0
129 0.004 0.03 0
130 0.004 0.03266666666666667 0
131 0.004 0.01666666666666666 0
132 0.004 0.02733333333333333 0
133 0.004 0.014 0
134 0.003999999999999998 0.022 0
135 0.004 0.04866666666666667 0
136 0.004 0.02466666666666667 0
137 0.004 0.03533333333333333 0
138 0.004 0.04066666666666667 0
139 0.004 0.03800000000000001 0
140 0.004000000000000001 0.04333333333333334 0
141 0.004 0.04600000000000001 0
142 0.006103514263191727 0.001850695897039921 0
143 0.001848068720703925 0.001799051079861967 0
144 0.005 0.01933444001763995 0.002378411111025531
145 0.005 0.0273850838555982 0.007586593388725996
146 0.005 0.03514004510199583 0.00763867269726622
147 0.005 0.04330871776118763 0.007316596374893379
148 0.005 0.01669989613517384 0.0074582914915959
149 0.005 0.03001965628777751 0.002425910273542045
150 0.005 0.02467673849074785 0.002458298429546647
151 0.005 0.022 0.007690598923241497
152 0.005 0.04066728371341381 0.002307536271984877
153 0.005 0.04608510803090294 0.002483226822292018
154 0.005 0.0139124624347017 0.002481059267026342
155 0.005 0.03533333333333333 0.002309401076758501
156 0.005 0.01192819009251768 0.006195984022201319
157 0.005 0.04807189781169714 0.00619598757213752
158 0.005 0.04334762084627502 0.002331334541799177
159 0.005 0.04451416756440965 0.004910807727926615
160 0.005 0.04197489598575969 0.00473414452804333
161 0.005 0.039227930712327 0.004715249755322752
162 0.005 0.04064237728926751 0.007282606006091725
163 0.005 0.03784167947025598 0.007454228421255215
164 0.005 0.03609246587969386 0.0049739526594633
165 0.005 0.03344246518294847 0.005907986086039985
166 0.005 0.01665941608319883 0.002356282560020611
167 0.005 0.01549528806978142 0.004952557170461339
168 0.005 0.03788683560646133 0.002384356627254905
169 0.005 0.03265758925534135 0.002180532206008842
170 0.005 0.01934603575948745 0.007537473792062615
171 0.005 0.02066913066599326 0.00531469108951951
172 0.005 0.02333901588203711 0.005324954838972521
173 0.005 0.02200230060195454 0.002720079490047975
174 0.005 0.0260800854224767 0.004952171178021948
175 0.005 0.01803972319585009 0.004805856305216726
176 0.005 0.02738364533612164 0.002529743306787703
177 0.005 0.02468958641557422 0.007592386388160327
178 0.005 0.02908915490732979 0.00516990182110002
179 0.005 0.03 0.007722057331788032
180 0.005 0.04607810322793444 0.0073669131519315
181 0.005 0.01392456603778788 0.007393115967600622
182 0.005 0.03178421108418793 0.004329388253727311
183 0.005 0.01186355342983036 0.003818612771377669
184 0.005 0.04813614420268769 0.003818978172180844
185 0.005 0.03266666666666666 0.00802893201438044
186 0.005 0.01170388455939445 0.008217819997960389
187 0.005 0.04829666687459298 0.008212580144813802
188 0.005 0.04821490437198413 0.001779611125283044
189 0.005 0.01178489650980324 0.001779426507493781
190 0.005 0.03394971317314176 0.003872417714525873
191 0.005 0.03144543081892238 0.006342750648168115
192 0.005 0.01342481201292381 0.004968265839733458
193 0.005 0.04657708416752637 0.004955182689293699
194 0.004 0.05 0.00625
195 0.004 0.05 0.008750000000000001
196 0.004 0.05 0.003749999999999999
197 0.004 0.05 0.00125
198 0.003 0.04066555998236005 0.002378411111025531
199 0.003 0.03271431927849164 0.007543480251497476
200 0.003 0.02467841477407422 0.007543852807003502
201 0.003 0.01669128223881242 0.007316596374893389
202 0.003 0.03533977000435658 0.002376597993316978
203 0.003 0.04330010386482617 0.007458291491595899
204 0.003 0.03800000000000001 0.007690598923241497
205 0.003 0.0193333782930085 0.002307816793216411
206 0.003 0.02739728266505113 0.002626083702947968
207 0.003 0.01391489196909707 0.002483226822292031
208 0.003 0.04608753756529831 0.002481059267026341
209 0.003 0.04807180990748232 0.006195984022201319
210 0.003 0.01192810218830288 0.006195987572137519
211 0.003 0.01665248948812871 0.002331381295337778
212 0.003 0.01548585082465766 0.004910815520183059
213 0.003 0.01802523580255591 0.004734200372547752
214 0.003 0.02066783722061639 0.004638154768758273
215 0.003 0.01934027266427569 0.007269766149081697
216 0.003 0.02199929957645424 0.007227044677271437
217 0.003 0.02334815524751969 0.004806302722328981
218 0.003 0.0260625903322507 0.005101091425175406
219 0.003 0.02736826951052057 0.007618696634085193
220 0.003 0.02874787431778819 0.005181657899060828
221 0.003 0.03011392067172403 0.002734534226410853
222 0.003 0.03140083069934532 0.005019695281043117
223 0.003 0.04334058391680117 0.002356282560020611
224 0.003 0.04450471193021859 0.004952557170461339
225 0.003 0.02200293183241052 0.002345276722383076
226 0.003 0.03535885890207917 0.007547149360243833
227 0.003 0.03667263045954894 0.005313854940504274
228 0.003 0.03933333333333333 0.005381197846482994
229 0.003 0.03800096035540807 0.002818334292937318
230 0.003 0.04196287122320756 0.004868973211845783
231 0.003 0.04065494029245007 0.007566510245527694
232 0.003 0.02469071556842756 0.002479792428805905
233 0.003 0.03406833524778907 0.004844465886598877
234 0.003 0.03003854896769096 0.007560588344281101
235 0.003 0.03270948598094642 0.002339638997953025
236 0.003 0.04607543396221213 0.007393115967600621
237 0.003 0.01392189939907518 0.007366914265110994
238 0.003 0.01186385579731232 0.003818978172180846
239 0.003 0.04813644657016964 0.003818612771377669
240 0.003 0.01170333365080895 0.008212580367449701
241 0.003 0.04829611544060556 0.008217819997960389
242 0.003 0.04821510349019677 0.00177942650749378
243 0.003 0.01178509562801587 0.001779611125283045
244 0.003 0.0465751879870762 0.004968265839733458
245 0.003 0.01342292003568903 0.00495518447038089
246 0.0015 0.01 0.006250000000000001
247 0.0015 0.01 0.008472619047619048
248 0.0015 0.01 0.003749999999999999
249 0.0015 0.01 0.001527380952380952
250 0 0.002132312167772878 0.006359067871167677
251 0 0.007455130020893456 0.003853996266633497
252 0 0.006246662583056095 0.007889576781804049
253 0 0.0037563104604352 0.001919490385400413
254 0 0.003784328232099319 0.008020789952744136
255 0 0.00494349727300339 0.005691909685851332
256 0 0.007832009930524039 0.006287038938250801
257 0 0.002521184975333665 0.003860075984278796
258 0 0.006144560228268073 0.001887258433261011
259 0 0.004964136591586757 0.00344254615108501
260 0 0.001830127018922193 0.008169872981077807
261 0 0.008219938049832306 0.001648250939978902
262 0 0.001830127018922191 0.001830127018922193
263 0 0.008169872981077807 0.008169872981077809
264 0.003999999999999998 0 0.002286437915447873
265 0.002073379055476651 0 0.006231965371451887
266 0.005926620944523348 0 0.006231965371451887
267 0.005935896842794428 0 0.003749999999999999
268 0.00206410315720557 0 0.003749999999999999
269 0.003999999999999999 0 0.007853529684803342
270 0.003999999999999999 0 0.004957917858800733
271 0.006151931279296067 0 0.008200948920138028
272 0.006253846035225552 0 0.001707287583089574
273 0.001746153964774447 0 0.001707287583089574
274 0.001848068720703932 0 0.008200948920138028
275 0.008 0.002132312167772878 0.006359067871167677
276 0.008 0.007455130020893456 0.003853996266633497
277 0.008 0.006246662583056095 0.007889576781804049
278 0.008 0.0037563104604352 0.001919490385400413
279 0.008 0.003784328232099319 0.008020789952744136
280 0.008 0.00494349727300339 0.005691909685851332
281 0.008 0.007832009930524039 0.006287038938250801
282 0.008 0.002521184975333665 0.003860075984278796
283 0.008 0.006144560228268073 0.001887258433261011
284 0.008 0.004964136591586757 0.00344254615108501
285 0.008 0.001830127018922193 0.008169872981077807
286 0.008 0.008219938049832306 0.001648250939978902
287 0.008 0.001830127018922191 0.001830127018922193
288 0.008 0.008169872981077807 0.008169872981077809
289 0.0065 0.01 0.006250000000000001
290 0.006500000000000001 0.01 0.008472619047619048
291 0.006500000000000001 0.01 0.003749999999999999
292 0.006500000000000001 0.01 0.001527380952380952
293 0.005834936490538904 0.006249999999999999 0.01
294 0.002101081765516624 0.003750192084125942 0.01
295 0.002440447800488621 0.008321330730727907 0.01
296 0.005565358124385515 0.008344306085133157 0.01
297 0.00398827655319565 0.007155557120165475 0.01
298 0.005940722486496637 0.003812300970804337 0.01
299 0.002086359646806076 0.006114718894049957 0.01
300 0.004 0.01133333333333334 0.01
301 0.003999882102416858 0.002146730474013193 0.01
302 0.003991876507495125 0.004871583257193151 0.01
303 0.003998816495613958 0.008764238787205308 0.01
304 0.004 0.01933333333333333 0.01
305 0.004 0.03 0.01
306 0.004 0.03266666666666667 0.01
307 0.004 0.01666666666666666 0.01
308 0.004 0.02733333333333333 0.01
309 0.004 0.014 0.01
310 0.004 0.04866666666666667 0.01
311 0.004 0.02466666666666667 0.01
312 0.004 0.03533333333333333 0.01
313 0.004 0.04066666666666667 0.01
314 0.004 0.03800000000000001 0.01
315 0.004000000000000001 0.04333333333333334 0.01
316 0.004 0.04600000000000001 0.01
317 0.003999999999999998 0.022 0.01
318 0.006103514263191727 0.001850695897039921 0.01
319 0.001848068720703925 0.001799051079861967 0.01
320 0.004000000000000002 0.006049306763314589 0.004038404975915416
321 0.003522793394622436 0.00350776694311463 0.006632802801469745
322 0.005438160677662722 0.006694945810806379 0.006910846280553501
323 0.003150799146663167 0.003067255739793496 0.003015321229575017
324 0.005681096409801528 0.00725750548952993 0.002421229431586075
325 0.002328701635042136 0.007255396550126865 0.002402916842285878
326 0.005469985240884864 0.004341672561034014 0.002585644359136344
327 0.005303309741058069 0.002542230695417861 0.004712595732331244
328 0.002450427614242695 0.007409379216879472 0.007513681862234005
$EndNodes
$Elements
1498
1 2 2 13 1 17 143 1
2 2 2 13 1 1 143 24
3 2 2 13 1 2 142 18
4 2 2 13 1 19 142 2
5 2 2 13 1 21 3 54
6 2 2 13 1 53 4 22
7 2 2 13 1 5 124 8
8 2 2 13 1 8 127 5
9 2 2 13 1 25 124 5
10 2 2 13 1 5 120 54
11 2 2 13 1 5 127 120
12 2 2 13 1 7 135 6
13 2 2 13 1 6 135 38
14 2 2 13 1 39 135 7
15 2 2 13 1 8 124 52
16 2 2 13 1 53 119 8
17 2 2 13 1 119 127 8
18 2 2 13 1 18 125 17
19 2 2 13 1 125 143 17
20 2 2 13 1 18 142 125
21 2 2 13 1 23 123 22
22 2 2 13 1 22 119 53
23 2 2 13 1 22 123 119
24 2 2 13 1 24 118 23
25 2 2 13 1 118 123 23
26 2 2 13 1 24 143 118
27 2 2 13 1 26 133 25
28 2 2 13 1 52 124 25
29 2 2 13 1 25 133 52
30 2 2 13 1 27 131 26
31 2 2 13 1 26 131 51
32 2 2 13 1 51 133 26
33 2 2 13 1 28 128 27
34 2 2 13 1 27 128 50
35 2 2 13 1 50 131 27
36 2 2 13 1 29 134 28
37 2 2 13 1 49 128 28
38 2 2 13 1 28 134 49
39 2 2 13 1 30 136 29
40 2 2 13 1 48 134 29
41 2 2 13 1 29 136 48
42 2 2 13 1 31 132 30
43 2 2 13 1 30 132 47
44 2 2 13 1 47 136 30
45 2 2 13 1 32 129 31
46 2 2 13 1 31 129 46
47 2 2 13 1 46 132 31
48 2 2 13 1 33 130 32
49 2 2 13 1 45 129 32
50 2 2 13 1 32 130 45
51 2 2 13 1 34 137 33
52 2 2 13 1 44 130 33
53 2 2 13 1 33 137 44
54 2 2 13 1 35 139 34
55 2 2 13 1 43 137 34
56 2 2 13 1 34 139 43
57 2 2 13 1 36 138 35
58 2 2 13 1 35 138 42
59 2 2 13 1 42 139 35
60 2 2 13 1 37 140 36
61 2 2 13 1 41 138 36
62 2 2 13 1 36 140 41
63 2 2 13 1 38 141 37
64 2 2 13 1 40 140 37
65 2 2 13 1 37 141 40
66 2 2 13 1 38 135 39
67 2 2 13 1 39 141 38
68 2 2 13 1 40 141 39
69 2 2 13 1 41 140 40
70 2 2 13 1 42 138 41
71 2 2 13 1 43 139 42
72 2 2 13 1 44 137 43
73 2 2 13 1 45 130 44
74 2 2 13 1 46 129 45
75 2 2 13 1 47 132 46
76 2 2 13 1 48 136 47
77 2 2 13 1 49 134 48
78 2 2 13 1 50 128 49
79 2 2 13 1 51 131 50
80 2 2 13 1 52 133 51
81 2 2 13 1 54 120 21
82 2 2 13 1 20 122 19
83 2 2 13 1 122 142 19
84 2 2 13 1 21 117 20
85 2 2 13 1 117 122 20
86 2 2 13 1 21 120 117
87 2 2 13 1 120 121 117
88 2 2 13 1 121 126 117
89 2 2 13 1 117 126 122
90 2 2 13 1 118 126 123
91 2 2 13 1 125 126 118
92 2 2 13 1 118 143 125
93 2 2 13 1 119 123 121
94 2 2 13 1 121 127 119
95 2 2 13 1 120 127 121
96 2 2 13 1 123 126 121
97 2 2 13 1 122 126 125
98 2 2 13 1 125 142 122
99 2 2 13 2 5 25 189
100 2 2 13 2 55 5 189
101 2 2 13 2 38 6 188
102 2 2 13 2 6 58 188
103 2 2 13 2 9 57 186
104 2 2 13 2 61 9 186
105 2 2 13 2 60 10 187
106 2 2 13 2 10 74 187
107 2 2 13 2 25 26 154
108 2 2 13 2 25 154 189
109 2 2 13 2 26 27 166
110 2 2 13 2 154 26 166
111 2 2 13 2 27 28 144
112 2 2 13 2 27 144 166
113 2 2 13 2 28 29 173
114 2 2 13 2 144 28 173
115 2 2 13 2 29 30 150
116 2 2 13 2 29 150 173
117 2 2 13 2 30 31 176
118 2 2 13 2 150 30 176
119 2 2 13 2 31 32 149
120 2 2 13 2 31 149 176
121 2 2 13 2 32 33 169
122 2 2 13 2 149 32 169
123 2 2 13 2 33 34 155
124 2 2 13 2 33 155 169
125 2 2 13 2 34 35 168
126 2 2 13 2 155 34 168
127 2 2 13 2 35 36 152
128 2 2 13 2 35 152 168
129 2 2 13 2 36 37 158
130 2 2 13 2 152 36 158
131 2 2 13 2 37 38 153
132 2 2 13 2 37 153 158
133 2 2 13 2 153 38 188
134 2 2 13 2 56 55 183
135 2 2 13 2 183 55 189
136 2 2 13 2 57 56 156
137 2 2 13 2 156 56 183
138 2 2 13 2 57 156 186
139 2 2 13 2 58 59 184
140 2 2 13 2 58 184 188
141 2 2 13 2 59 60 157
142 2 2 13 2 59 157 184
143 2 2 13 2 157 60 187
144 2 2 13 2 62 61 181
145 2 2 13 2 181 61 186
146 2 2 13 2 63 62 148
147 2 2 13 2 148 62 181
148 2 2 13 2 64 63 170
149 2 2 13 2 63 148 170
150 2 2 13 2 65 64 151
151 2 2 13 2 151 64 170
152 2 2 13 2 66 65 177
153 2 2 13 2 65 151 177
154 2 2 13 2 67 66 145
155 2 2 13 2 145 66 177
156 2 2 13 2 68 67 179
157 2 2 13 2 67 145 179
158 2 2 13 2 69 68 185
159 2 2 13 2 68 179 185
160 2 2 13 2 70 69 146
161 2 2 13 2 146 69 185
162 2 2 13 2 71 70 163
163 2 2 13 2 70 146 163
164 2 2 13 2 72 71 162
165 2 2 13 2 162 71 163
166 2 2 13 2 73 72 147
167 2 2 13 2 147 72 162
168 2 2 13 2 74 73 180
169 2 2 13 2 73 147 180
170 2 2 13 2 74 180 187
171 2 2 13 2 166 144 175
172 2 2 13 2 171 144 173
173 2 2 13 2 144 171 175
174 2 2 13 2 174 145 177
175 2 2 13 2 145 174 178
176 2 2 13 2 145 178 179
177 2 2 13 2 163 146 164
178 2 2 13 2 164 146 165
179 2 2 13 2 165 146 185
180 2 2 13 2 159 147 160
181 2 2 13 2 147 159 180
182 2 2 13 2 160 147 162
183 2 2 13 2 148 167 175
184 2 2 13 2 167 148 181
185 2 2 13 2 170 148 175
186 2 2 13 2 149 169 182
187 2 2 13 2 176 149 178
188 2 2 13 2 178 149 182
189 2 2 13 2 150 172 173
190 2 2 13 2 172 150 174
191 2 2 13 2 174 150 176
192 2 2 13 2 151 170 171
193 2 2 13 2 151 171 172
194 2 2 13 2 151 172 177
195 2 2 13 2 152 158 160
196 2 2 13 2 152 160 161
197 2 2 13 2 152 161 168
198 2 2 13 2 158 153 159
199 2 2 13 2 159 153 193
200 2 2 13 2 184 153 188
201 2 2 13 2 153 184 193
202 2 2 13 2 154 166 167
203 2 2 13 2 154 167 192
204 2 2 13 2 154 183 189
205 2 2 13 2 183 154 192
206 2 2 13 2 164 155 168
207 2 2 13 2 155 164 190
208 2 2 13 2 169 155 190
209 2 2 13 2 156 181 186
210 2 2 13 2 181 156 192
211 2 2 13 2 156 183 192
212 2 2 13 2 180 157 187
213 2 2 13 2 157 180 193
214 2 2 13 2 184 157 193
215 2 2 13 2 158 159 160
216 2 2 13 2 180 159 193
217 2 2 13 2 161 160 162
218 2 2 13 2 161 162 163
219 2 2 13 2 161 163 164
220 2 2 13 2 161 164 168
221 2 2 13 2 164 165 190
222 2 2 13 2 165 182 190
223 2 2 13 2 182 165 191
224 2 2 13 2 165 185 191
225 2 2 13 2 167 166 175
226 2 2 13 2 167 181 192
227 2 2 13 2 182 169 190
228 2 2 13 2 171 170 175
229 2 2 13 2 172 171 173
230 2 2 13 2 172 174 177
231 2 2 13 2 174 176 178
232 2 2 13 2 179 178 191
233 2 2 13 2 178 182 191
234 2 2 13 2 185 179 191
235 2 2 13 3 6 7 197
236 2 2 13 3 58 6 197
237 2 2 13 3 7 75 197
238 2 2 13 3 11 10 195
239 2 2 13 3 10 60 195
240 2 2 13 3 77 11 195
241 2 2 13 3 59 58 196
242 2 2 13 3 58 75 196
243 2 2 13 3 75 58 197
244 2 2 13 3 60 59 194
245 2 2 13 3 59 76 194
246 2 2 13 3 76 59 196
247 2 2 13 3 77 60 194
248 2 2 13 3 60 77 195
249 2 2 13 3 75 76 196
250 2 2 13 3 76 77 194
251 2 2 13 4 7 39 242
252 2 2 13 4 75 7 242
253 2 2 13 4 52 8 243
254 2 2 13 4 8 78 243
255 2 2 13 4 11 77 241
256 2 2 13 4 81 11 241
257 2 2 13 4 80 12 240
258 2 2 13 4 12 94 240
259 2 2 13 4 39 40 208
260 2 2 13 4 39 208 242
261 2 2 13 4 40 41 223
262 2 2 13 4 208 40 223
263 2 2 13 4 41 42 198
264 2 2 13 4 41 198 223
265 2 2 13 4 42 43 229
266 2 2 13 4 198 42 229
267 2 2 13 4 43 44 202
268 2 2 13 4 43 202 229
269 2 2 13 4 44 45 235
270 2 2 13 4 202 44 235
271 2 2 13 4 45 46 221
272 2 2 13 4 45 221 235
273 2 2 13 4 46 47 206
274 2 2 13 4 46 206 221
275 2 2 13 4 47 48 232
276 2 2 13 4 206 47 232
277 2 2 13 4 48 49 225
278 2 2 13 4 48 225 232
279 2 2 13 4 49 50 205
280 2 2 13 4 49 205 225
281 2 2 13 4 50 51 211
282 2 2 13 4 205 50 211
283 2 2 13 4 51 52 207
284 2 2 13 4 51 207 211
285 2 2 13 4 207 52 243
286 2 2 13 4 76 75 239
287 2 2 13 4 239 75 242
288 2 2 13 4 77 76 209
289 2 2 13 4 209 76 239
290 2 2 13 4 77 209 241
291 2 2 13 4 78 79 238
292 2 2 13 4 78 238 243
293 2 2 13 4 79 80 210
294 2 2 13 4 79 210 238
295 2 2 13 4 210 80 240
296 2 2 13 4 82 81 236
297 2 2 13 4 236 81 241
298 2 2 13 4 83 82 203
299 2 2 13 4 203 82 236
300 2 2 13 4 84 83 231
301 2 2 13 4 83 203 231
302 2 2 13 4 85 84 204
303 2 2 13 4 204 84 231
304 2 2 13 4 86 85 226
305 2 2 13 4 85 204 226
306 2 2 13 4 87 86 199
307 2 2 13 4 199 86 226
308 2 2 13 4 88 87 234
309 2 2 13 4 87 199 234
310 2 2 13 4 89 88 219
311 2 2 13 4 219 88 234
312 2 2 13 4 90 89 200
313 2 2 13 4 200 89 219
314 2 2 13 4 91 90 216
315 2 2 13 4 90 200 216
316 2 2 13 4 92 91 215
317 2 2 13 4 215 91 216
318 2 2 13 4 93 92 201
319 2 2 13 4 201 92 215
320 2 2 13 4 94 93 237
321 2 2 13 4 93 201 237
322 2 2 13 4 94 237 240
323 2 2 13 4 223 198 230
324 2 2 13 4 228 198 229
325 2 2 13 4 198 228 230
326 2 2 13 4 222 199 233
327 2 2 13 4 199 222 234
328 2 2 13 4 199 226 233
329 2 2 13 4 216 200 217
330 2 2 13 4 217 200 218
331 2 2 13 4 218 200 219
332 2 2 13 4 212 201 213
333 2 2 13 4 201 212 237
334 2 2 13 4 213 201 215
335 2 2 13 4 202 227 229
336 2 2 13 4 227 202 233
337 2 2 13 4 233 202 235
338 2 2 13 4 203 224 230
339 2 2 13 4 224 203 236
340 2 2 13 4 203 230 231
341 2 2 13 4 226 204 227
342 2 2 13 4 227 204 228
343 2 2 13 4 228 204 231
344 2 2 13 4 205 211 213
345 2 2 13 4 205 213 214
346 2 2 13 4 205 214 225
347 2 2 13 4 206 218 220
348 2 2 13 4 218 206 232
349 2 2 13 4 206 220 221
350 2 2 13 4 211 207 212
351 2 2 13 4 212 207 245
352 2 2 13 4 238 207 243
353 2 2 13 4 207 238 245
354 2 2 13 4 208 223 224
355 2 2 13 4 208 224 244
356 2 2 13 4 208 239 242
357 2 2 13 4 239 208 244
358 2 2 13 4 209 236 241
359 2 2 13 4 236 209 244
360 2 2 13 4 209 239 244
361 2 2 13 4 237 210 240
362 2 2 13 4 210 237 245
363 2 2 13 4 238 210 245
364 2 2 13 4 211 212 213
365 2 2 13 4 237 212 245
366 2 2 13 4 214 213 215
367 2 2 13 4 214 215 216
368 2 2 13 4 214 216 217
369 2 2 13 4 214 217 225
370 2 2 13 4 217 218 232
371 2 2 13 4 225 217 232
372 2 2 13 4 218 219 220
373 2 2 13 4 220 219 234
374 2 2 13 4 221 220 222
375 2 2 13 4 222 220 234
376 2 2 13 4 221 222 235
377 2 2 13 4 222 233 235
378 2 2 13 4 224 223 230
379 2 2 13 4 224 236 244
380 2 2 13 4 226 227 233
381 2 2 13 4 227 228 229
382 2 2 13 4 230 228 231
383 2 2 13 5 53 4 249
384 2 2 13 5 4 95 249
385 2 2 13 5 8 53 249
386 2 2 13 5 78 8 249
387 2 2 13 5 12 80 247
388 2 2 13 5 98 12 247
389 2 2 13 5 97 13 247
390 2 2 13 5 13 98 247
391 2 2 13 5 79 78 248
392 2 2 13 5 248 78 249
393 2 2 13 5 80 79 246
394 2 2 13 5 246 79 248
395 2 2 13 5 80 246 247
396 2 2 13 5 95 96 248
397 2 2 13 5 95 248 249
398 2 2 13 5 96 97 246
399 2 2 13 5 96 246 248
400 2 2 13 5 246 97 247
401 2 2 11 6 24 1 262
402 2 2 11 6 1 99 262
403 2 2 11 6 4 22 261
404 2 2 11 6 95 4 261
405 2 2 11 6 13 97 263
406 2 2 11 6 102 13 263
407 2 2 11 6 101 14 260
408 2 2 11 6 14 104 260
409 2 2 11 6 22 23 258
410 2 2 11 6 22 258 261
411 2 2 11 6 23 24 253
412 2 2 11 6 23 253 258
413 2 2 11 6 253 24 262
414 2 2 11 6 96 95 251
415 2 2 11 6 251 95 261
416 2 2 11 6 97 96 256
417 2 2 11 6 96 251 256
418 2 2 11 6 97 256 263
419 2 2 11 6 99 100 257
420 2 2 11 6 99 257 262
421 2 2 11 6 100 101 250
422 2 2 11 6 100 250 257
423 2 2 11 6 250 101 260
424 2 2 11 6 103 102 252
425 2 2 11 6 252 102 263
426 2 2 11 6 104 103 254
427 2 2 11 6 103 252 254
428 2 2 11 6 104 254 260
429 2 2 11 6 250 254 255
430 2 2 11 6 254 250 260
431 2 2 11 6 250 255 257
432 2 2 11 6 251 255 256
433 2 2 11 6 255 251 259
434 2 2 11 6 251 258 259
435 2 2 11 6 258 251 261
436 2 2 11 6 254 252 255
437 2 2 11 6 255 252 256
438 2 2 11 6 256 252 263
439 2 2 11 6 253 257 259
440 2 2 11 6 257 253 262
441 2 2 11 6 258 253 259
442 2 2 11 6 257 255 259
443 2 2 10 7 1 17 273
444 2 2 10 7 99 1 273
445 2 2 10 7 18 2 272
446 2 2 10 7 2 105 272
447 2 2 10 7 14 101 274
448 2 2 10 7 108 14 274
449 2 2 10 7 107 15 271
450 2 2 10 7 15 109 271
451 2 2 10 7 17 18 264
452 2 2 10 7 17 264 273
453 2 2 10 7 264 18 272
454 2 2 10 7 100 99 268
455 2 2 10 7 268 99 273
456 2 2 10 7 101 100 265
457 2 2 10 7 265 100 268
458 2 2 10 7 101 265 274
459 2 2 10 7 105 106 267
460 2 2 10 7 105 267 272
461 2 2 10 7 106 107 266
462 2 2 10 7 106 266 267
463 2 2 10 7 266 107 271
464 2 2 10 7 109 108 269
465 2 2 10 7 269 108 274
466 2 2 10 7 109 269 271
467 2 2 10 7 264 267 270
468 2 2 10 7 267 264 272
469 2 2 10 7 268 264 270
470 2 2 10 7 264 268 273
471 2 2 10 7 265 268 270
472 2 2 10 7 269 265 270
473 2 2 10 7 265 269 274
474 2 2 10 7 267 266 270
475 2 2 10 7 266 269 270
476 2 2 10 7 269 266 271
477 2 2 12 8 2 105 287
478 2 2 12 8 19 2 287
479 2 2 12 8 110 3 286
480 2 2 12 8 3 21 286
481 2 2 12 8 107 15 285
482 2 2 12 8 15 113 285
483 2 2 12 8 16 112 288
484 2 2 12 8 115 16 288
485 2 2 12 8 105 106 282
486 2 2 12 8 105 282 287
487 2 2 12 8 106 107 275
488 2 2 12 8 106 275 282
489 2 2 12 8 275 107 285
490 2 2 12 8 111 110 276
491 2 2 12 8 276 110 286
492 2 2 12 8 112 111 281
493 2 2 12 8 111 276 281
494 2 2 12 8 112 281 288
495 2 2 12 8 113 114 279
496 2 2 12 8 113 279 285
497 2 2 12 8 114 115 277
498 2 2 12 8 114 277 279
499 2 2 12 8 277 115 288
500 2 2 12 8 20 19 278
501 2 2 12 8 278 19 287
502 2 2 12 8 21 20 283
503 2 2 12 8 20 278 283
504 2 2 12 8 21 283 286
505 2 2 12 8 275 279 280
506 2 2 12 8 279 275 285
507 2 2 12 8 275 280 282
508 2 2 12 8 276 280 281
509 2 2 12 8 280 276 284
510 2 2 12 8 276 283 284
511 2 2 12 8 283 276 286
512 2 2 12 8 279 277 280
513 2 2 12 8 280 277 281
514 2 2 12 8 281 277 288
515 2 2 12 8 278 282 284
516 2 2 12 8 282 278 287
517 2 2 12 8 283 278 284
518 2 2 12 8 282 280 284
519 2 2 13 9 3 54 292
520 2 2 13 9 110 3 292
521 2 2 13 9 54 5 292
522 2 2 13 9 5 55 292
523 2 2 13 9 57 9 290
524 2 2 13 9 9 116 290
525 2 2 13 9 16 112 290
526 2 2 13 9 116 16 290
527 2 2 13 9 55 56 291
528 2 2 13 9 55 291 292
529 2 2 13 9 56 57 289
530 2 2 13 9 56 289 291
531 2 2 13 9 289 57 290
532 2 2 13 9 111 110 291
533 2 2 13 9 291 110 292
534 2 2 13 9 112 111 289
535 2 2 13 9 289 111 291
536 2 2 13 9 112 289 290
537 2 2 13 10 9 300 12
538 2 2 13 10 12 303 9
539 2 2 13 10 61 300 9
540 2 2 13 10 9 296 116
541 2 2 13 10 9 303 296
542 2 2 13 10 11 310 10
543 2 2 13 10 10 310 74
544 2 2 13 10 81 310 11
545 2 2 13 10 12 300 94
546 2 2 13 10 98 295 12
547 2 2 13 10 295 303 12
548 2 2 13 10 98 13 102
549 2 2 13 10 14 319 104
550 2 2 13 10 108 319 14
551 2 2 13 10 15 318 109
552 2 2 13 10 113 318 15
553 2 2 13 10 115 16 116
554 2 2 13 10 62 309 61
555 2 2 13 10 94 300 61
556 2 2 13 10 61 309 94
557 2 2 13 10 63 307 62
558 2 2 13 10 62 307 93
559 2 2 13 10 93 309 62
560 2 2 13 10 64 304 63
561 2 2 13 10 63 304 92
562 2 2 13 10 92 307 63
563 2 2 13 10 65 317 64
564 2 2 13 10 91 304 64
565 2 2 13 10 64 317 91
566 2 2 13 10 66 311 65
567 2 2 13 10 65 311 90
568 2 2 13 10 90 317 65
569 2 2 13 10 67 308 66
570 2 2 13 10 66 308 89
571 2 2 13 10 89 311 66
572 2 2 13 10 68 305 67
573 2 2 13 10 67 305 88
574 2 2 13 10 88 308 67
575 2 2 13 10 69 306 68
576 2 2 13 10 87 305 68
577 2 2 13 10 68 306 87
578 2 2 13 10 70 312 69
579 2 2 13 10 86 306 69
580 2 2 13 10 69 312 86
581 2 2 13 10 71 314 70
582 2 2 13 10 85 312 70
583 2 2 13 10 70 314 85
584 2 2 13 10 72 313 71
585 2 2 13 10 71 313 84
586 2 2 13 10 84 314 71
587 2 2 13 10 73 315 72
588 2 2 13 10 83 313 72
589 2 2 13 10 72 315 83
590 2 2 13 10 74 316 73
591 2 2 13 10 82 315 73
592 2 2 13 10 73 316 82
593 2 2 13 10 74 310 81
594 2 2 13 10 81 316 74
595 2 2 13 10 82 316 81
596 2 2 13 10 83 315 82
597 2 2 13 10 84 313 83
598 2 2 13 10 85 314 84
599 2 2 13 10 86 312 85
600 2 2 13 10 87 306 86
601 2 2 13 10 88 305 87
602 2 2 13 10 89 308 88
603 2 2 13 10 90 311 89
604 2 2 13 10 91 317 90
605 2 2 13 10 92 304 91
606 2 2 13 10 93 307 92
607 2 2 13 10 94 309 93
608 2 2 13 10 102 295 98
609 2 2 13 10 103 299 102
610 2 2 13 10 102 299 295
611 2 2 13 10 104 294 103
612 2 2 13 10 294 299 103
613 2 2 13 10 104 319 294
614 2 2 13 10 109 301 108
615 2 2 13 10 301 319 108
616 2 2 13 10 109 318 301
617 2 2 13 10 114 298 113
618 2 2 13 10 298 318 113
619 2 2 13 10 115 293 114
620 2 2 13 10 293 298 114
621 2 2 13 10 116 296 115
622 2 2 13 10 115 296 293
623 2 2 13 10 296 297 293
624 2 2 13 10 297 302 293
625 2 2 13 10 293 302 298
626 2 2 13 10 294 302 299
627 2 2 13 10 301 302 294
628 2 2 13 10 294 319 301
629 2 2 13 10 295 299 297
630 2 2 13 10 297 303 295
631 2 2 13 10 296 303 297
632 2 2 13 10 299 302 297
633 2 2 13 10 298 302 301
634 2 2 13 10 301 318 298
635 4 2 1 1 279 321 298 322
636 4 2 1 1 271 318 285 321
637 4 2 1 1 279 318 298 321
638 4 2 1 1 285 318 279 321
639 4 2 1 1 253 123 258 325
640 4 2 1 1 253 118 123 325
641 4 2 1 1 56 322 320 324
642 4 2 1 1 259 253 258 325
643 4 2 1 1 275 271 285 321
644 4 2 1 1 253 323 118 325
645 4 2 1 1 251 320 79 328
646 4 2 1 1 299 321 252 328
647 4 2 1 1 320 322 321 327
648 4 2 1 1 252 299 254 321
649 4 2 1 1 285 279 275 321
650 4 2 1 1 294 254 299 321
651 4 2 1 1 251 79 320 325
652 4 2 1 1 259 323 253 325
653 4 2 1 1 280 321 279 322
654 4 2 1 1 293 277 298 322
655 4 2 1 1 272 142 264 326
656 4 2 1 1 78 56 79 320
657 4 2 1 1 78 55 56 320
658 4 2 1 1 56 276 322 324
659 4 2 1 1 272 326 264 327
660 4 2 1 1 277 279 298 322
661 4 2 1 1 320 280 322 327
662 4 2 1 1 257 265 268 323
663 4 2 1 1 302 298 321 322
664 4 2 1 1 257 321 265 323
665 4 2 1 1 255 321 320 328
666 4 2 1 1 56 320 55 324
667 4 2 1 1 78 320 79 325
668 4 2 1 1 321 322 280 327
669 4 2 1 1 287 326 272 327
670 4 2 1 1 142 323 264 326
671 4 2 1 1 275 321 279 327
672 4 2 1 1 251 79 256 328
673 4 2 1 1 271 269 318 321
674 4 2 1 1 279 321 280 327
675 4 2 1 1 259 320 255 323
676 4 2 1 1 270 268 265 323
677 4 2 1 1 320 321 255 323
678 4 2 1 1 257 250 265 321
679 4 2 1 1 264 326 323 327
680 4 2 1 1 127 55 78 325
681 4 2 1 1 125 323 142 326
682 4 2 1 1 127 324 55 325
683 4 2 1 1 287 142 272 326
684 4 2 1 1 321 322 320 328
685 4 2 1 1 270 265 321 323
686 4 2 1 1 299 302 321 328
687 4 2 1 1 125 264 142 323
688 4 2 1 1 301 318 269 321
689 4 2 1 1 259 320 323 325
690 4 2 1 1 298 318 301 321
691 4 2 1 1 272 264 267 327
692 4 2 1 1 302 293 298 322
693 4 2 1 1 294 299 302 321
694 4 2 1 1 126 323 320 325
695 4 2 1 1 57 322 303 328
696 4 2 1 1 267 287 272 327
697 4 2 1 1 121 324 127 325
698 4 2 1 1 302 322 321 328
699 4 2 1 1 121 126 324 325
700 4 2 1 1 255 252 321 328
701 4 2 1 1 281 56 276 322
702 4 2 1 1 280 320 326 327
703 4 2 1 1 260 319 274 321
704 4 2 1 1 251 248 79 325
705 4 2 1 1 246 256 79 328
706 4 2 1 1 289 56 281 322
707 4 2 1 1 291 276 56 324
708 4 2 1 1 260 294 319 321
709 4 2 1 1 303 322 297 328
710 4 2 1 1 254 294 260 321
711 4 2 1 1 255 252 254 321
712 4 2 1 1 80 57 303 328
713 4 2 1 1 280 320 284 326
714 4 2 1 1 280 279 277 322
715 4 2 1 1 126 320 323 326
716 4 2 1 1 320 324 284 326
717 4 2 1 1 56 289 281 291
718 4 2 1 1 256 79 248 246
719 4 2 1 1 320 324 126 325
720 4 2 1 1 251 320 259 325
721 4 2 1 1 296 303 57 322
722 4 2 1 1 126 324 320 326
723 4 2 1 1 255 321 257 323
724 4 2 1 1 296 297 303 322
725 4 2 1 1 265 250 274 321
726 4 2 1 1 251 255 259 320
727 4 2 1 1 260 274 250 321
728 4 2 1 1 269 274 319 321
729 4 2 1 1 275 279 280 327
730 4 2 1 1 319 301 269 321
731 4 2 1 1 289 290 57 322
732 4 2 1 1 270 323 321 327
733 4 2 1 1 288 290 289 322
734 4 2 1 1 297 322 302 328
735 4 2 1 1 259 255 257 323
736 4 2 1 1 296 290 288 322
737 4 2 1 1 79 248 251 256
738 4 2 1 1 291 281 56 276
739 4 2 1 1 250 257 255 321
740 4 2 1 1 57 290 296 322
741 4 2 1 1 319 294 301 321
742 4 2 1 1 269 265 274 321
743 4 2 1 1 280 326 284 327
744 4 2 1 1 298 301 302 321
745 4 2 1 1 266 270 269 327
746 4 2 1 1 282 326 287 327
747 4 2 1 1 293 298 277 114
748 4 2 1 1 253 23 258 123
749 4 2 1 1 281 276 280 322
750 4 2 1 1 321 323 320 327
751 4 2 1 1 273 262 268 323
752 4 2 1 1 143 118 253 323
753 4 2 1 1 250 254 260 321
754 4 2 1 1 299 297 302 328
755 4 2 1 1 267 282 287 327
756 4 2 1 1 279 277 298 114
757 4 2 1 1 273 264 143 323
758 4 2 1 1 296 288 293 322
759 4 2 1 1 23 253 118 123
760 4 2 1 1 270 321 269 327
761 4 2 1 1 278 142 287 326
762 4 2 1 1 262 143 253 323
763 4 2 1 1 121 126 117 324
764 4 2 1 1 277 293 288 322
765 4 2 1 1 248 78 79 325
766 4 2 1 1 278 122 142 326
767 4 2 1 1 127 120 55 324
768 4 2 1 1 291 56 55 324
769 4 2 1 1 78 119 127 325
770 4 2 1 1 273 143 262 323
771 4 2 1 1 123 126 121 325
772 4 2 1 1 283 117 20 326
773 4 2 1 1 283 20 278 326
774 4 2 1 1 57 56 289 322
775 4 2 1 1 254 103 294 299
776 4 2 1 1 117 324 126 326
777 4 2 1 1 265 269 270 321
778 4 2 1 1 103 254 252 299
779 4 2 1 1 143 264 125 323
780 4 2 1 1 125 142 122 326
781 4 2 1 1 302 297 293 322
782 4 2 1 1 301 294 302 321
783 4 2 1 1 122 20 117 326
784 4 2 1 1 127 121 120 324
785 4 2 1 1 278 20 122 326
786 4 2 1 1 323 326 320 327
787 4 2 1 1 281 288 289 322
788 4 2 1 1 303 295 80 328
789 4 2 1 1 254 250 255 321
790 4 2 1 1 119 121 127 325
791 4 2 1 1 257 268 262 323
792 4 2 1 1 126 323 125 326
793 4 2 1 1 283 324 117 326
794 4 2 1 1 278 287 282 326
795 4 2 1 1 246 79 80 328
796 4 2 1 1 236 241 316 187
797 4 2 1 1 237 186 309 240
798 4 2 1 1 268 264 273 323
799 4 2 1 1 256 248 96 246
800 4 2 1 1 291 289 281 111
801 4 2 1 1 264 323 270 327
802 4 2 1 1 303 297 295 328
803 4 2 1 1 248 261 249 325
804 4 2 1 1 291 292 286 324
805 4 2 1 1 270 264 268 323
806 4 2 1 1 126 125 122 326
807 4 2 1 1 106 267 266 327
808 4 2 1 1 296 293 297 322
809 4 2 1 1 284 326 282 327
810 4 2 1 1 284 324 283 326
811 4 2 1 1 253 259 257 323
812 4 2 1 1 157 76 209 194
813 4 2 1 1 126 118 125 323
814 4 2 1 1 255 256 252 328
815 4 2 1 1 18 264 272 142
816 4 2 1 1 153 37 40 141
817 4 2 1 1 51 133 26 207
818 4 2 1 1 74 316 241 187
819 4 2 1 1 94 240 309 186
820 4 2 1 1 280 277 281 322
821 4 2 1 1 267 264 270 327
822 4 2 1 1 194 157 76 59
823 4 2 1 1 155 33 44 137
824 4 2 1 1 80 240 300 186
825 4 2 1 1 280 284 282 327
826 4 2 1 1 128 50 27 205
827 4 2 1 1 140 41 36 158
828 4 2 1 1 131 211 27 50
829 4 2 1 1 40 208 153 141
830 4 2 1 1 207 133 26 154
831 4 2 1 1 186 300 80 57
832 4 2 1 1 308 89 219 66
833 4 2 1 1 188 208 242 141
834 4 2 1 1 243 133 154 189
835 4 2 1 1 275 106 266 327
836 4 2 1 1 124 78 5 55
837 4 2 1 1 300 9 80 57
838 4 2 1 1 316 82 236 73
839 4 2 1 1 309 93 62 181
840 4 2 1 1 138 36 41 152
841 4 2 1 1 5 78 127 55
842 4 2 1 1 303 80 9 57
843 4 2 1 1 157 209 187 194
844 4 2 1 1 156 57 210 56
845 4 2 1 1 237 93 309 181
846 4 2 1 1 236 316 73 180
847 4 2 1 1 305 179 87 68
848 4 2 1 1 143 125 118 323
849 4 2 1 1 78 124 189 55
850 4 2 1 1 78 124 243 189
851 4 2 1 1 44 130 33 169
852 4 2 1 1 67 179 88 305
853 4 2 1 1 308 219 88 67
854 4 2 1 1 204 314 85 70
855 4 2 1 1 257 262 253 323
856 4 2 1 1 264 18 125 142
857 4 2 1 1 184 239 76 196
858 4 2 1 1 186 237 309 181
859 4 2 1 1 187 209 241 194
860 4 2 1 1 131 27 211 166
861 4 2 1 1 133 243 25 189
862 4 2 1 1 140 223 41 158
863 4 2 1 1 38 242 141 188
864 4 2 1 1 85 312 226 70
865 4 2 1 1 316 236 187 180
866 4 2 1 1 246 247 263 328
867 4 2 1 1 79 210 80 56
868 4 2 1 1 57 80 210 56
869 4 2 1 1 315 203 82 73
870 4 2 1 1 196 184 239 188
871 4 2 1 1 219 145 308 66
872 4 2 1 1 59 184 76 196
873 4 2 1 1 80 12 9 300
874 4 2 1 1 78 5 8 124
875 4 2 1 1 177 89 311 66
876 4 2 1 1 80 9 12 303
877 4 2 1 1 78 5 127 8
878 4 2 1 1 203 83 72 315
879 4 2 1 1 239 157 76 209
880 4 2 1 1 156 210 238 56
881 4 2 1 1 93 307 62 148
882 4 2 1 1 267 106 282 327
883 4 2 1 1 281 291 111 276
884 4 2 1 1 96 251 248 256
885 4 2 1 1 312 226 70 146
886 4 2 1 1 73 315 203 147
887 4 2 1 1 134 49 28 225
888 4 2 1 1 196 239 242 188
889 4 2 1 1 308 145 219 67
890 4 2 1 1 45 129 32 149
891 4 2 1 1 30 132 47 176
892 4 2 1 1 238 56 78 183
893 4 2 1 1 248 249 78 325
894 4 2 1 1 63 307 92 148
895 4 2 1 1 179 234 88 305
896 4 2 1 1 28 49 128 205
897 4 2 1 1 239 157 184 76
898 4 2 1 1 183 156 238 56
899 4 2 1 1 291 55 292 324
900 4 2 1 1 253 143 24 118
901 4 2 1 1 307 93 201 148
902 4 2 1 1 87 234 179 305
903 4 2 1 1 204 84 314 71
904 4 2 1 1 319 274 269 108
905 4 2 1 1 183 56 78 55
906 4 2 1 1 56 238 78 79
907 4 2 1 1 232 30 136 47
908 4 2 1 1 131 211 26 166
909 4 2 1 1 131 26 211 51
910 4 2 1 1 140 37 40 158
911 4 2 1 1 79 238 210 56
912 4 2 1 1 184 76 157 59
913 4 2 1 1 40 223 140 158
914 4 2 1 1 295 80 12 303
915 4 2 1 1 8 78 119 127
916 4 2 1 1 292 120 286 324
917 4 2 1 1 129 46 31 149
918 4 2 1 1 261 119 249 325
919 4 2 1 1 292 55 120 324
920 4 2 1 1 65 317 90 151
921 4 2 1 1 69 86 312 146
922 4 2 1 1 313 84 231 71
923 4 2 1 1 249 119 78 325
924 4 2 1 1 155 43 34 137
925 4 2 1 1 241 81 316 74
926 4 2 1 1 309 61 94 186
927 4 2 1 1 120 5 127 55
928 4 2 1 1 296 303 9 57
929 4 2 1 1 277 288 281 322
930 4 2 1 1 206 47 132 176
931 4 2 1 1 65 90 311 177
932 4 2 1 1 169 33 44 155
933 4 2 1 1 188 153 208 141
934 4 2 1 1 243 133 207 154
935 4 2 1 1 91 317 64 151
936 4 2 1 1 315 72 203 147
937 4 2 1 1 170 304 92 63
938 4 2 1 1 29 48 134 225
939 4 2 1 1 253 24 143 262
940 4 2 1 1 231 83 313 72
941 4 2 1 1 91 64 304 170
942 4 2 1 1 50 211 27 205
943 4 2 1 1 299 102 295 328
944 4 2 1 1 248 251 261 325
945 4 2 1 1 70 204 314 163
946 4 2 1 1 242 38 141 39
947 4 2 1 1 133 25 243 52
948 4 2 1 1 269 109 271 318
949 4 2 1 1 58 242 196 75
950 4 2 1 1 130 44 235 169
951 4 2 1 1 48 136 232 150
952 4 2 1 1 319 269 301 108
953 4 2 1 1 291 286 276 324
954 4 2 1 1 307 201 92 148
955 4 2 1 1 139 35 42 168
956 4 2 1 1 242 58 196 188
957 4 2 1 1 152 36 41 158
958 4 2 1 1 236 241 81 316
959 4 2 1 1 186 309 61 181
960 4 2 1 1 122 278 142 19
961 4 2 1 1 247 295 263 328
962 4 2 1 1 311 200 89 177
963 4 2 1 1 288 296 293 115
964 4 2 1 1 187 241 77 194
965 4 2 1 1 32 130 45 169
966 4 2 1 1 275 282 106 327
967 4 2 1 1 136 48 29 150
968 4 2 1 1 286 21 283 324
969 4 2 1 1 153 159 223 158
970 4 2 1 1 154 211 212 166
971 4 2 1 1 30 232 136 150
972 4 2 1 1 187 74 316 180
973 4 2 1 1 94 240 237 309
974 4 2 1 1 138 42 35 152
975 4 2 1 1 284 283 278 326
976 4 2 1 1 142 278 287 19
977 4 2 1 1 46 132 31 176
978 4 2 1 1 261 258 22 325
979 4 2 1 1 205 27 128 144
980 4 2 1 1 251 259 258 325
981 4 2 1 1 179 88 219 67
982 4 2 1 1 263 295 102 328
983 4 2 1 1 211 154 212 207
984 4 2 1 1 155 44 202 137
985 4 2 1 1 113 298 279 318
986 4 2 1 1 60 187 77 194
987 4 2 1 1 258 123 22 325
988 4 2 1 1 275 280 282 327
989 4 2 1 1 283 21 117 324
990 4 2 1 1 205 211 27 166
991 4 2 1 1 9 300 186 57
992 4 2 1 1 109 269 301 318
993 4 2 1 1 12 80 240 300
994 4 2 1 1 242 75 239 196
995 4 2 1 1 184 196 58 188
996 4 2 1 1 284 276 283 324
997 4 2 1 1 288 293 277 115
998 4 2 1 1 247 80 295 328
999 4 2 1 1 69 306 86 185
1000 4 2 1 1 279 285 113 318
1001 4 2 1 1 68 179 87 185
1002 4 2 1 1 153 223 40 158
1003 4 2 1 1 223 208 159 153
1004 4 2 1 1 287 105 267 272
1005 4 2 1 1 99 273 262 268
1006 4 2 1 1 87 306 68 185
1007 4 2 1 1 51 26 211 207
1008 4 2 1 1 153 40 37 158
1009 4 2 1 1 225 28 134 173
1010 4 2 1 1 225 134 29 173
1011 4 2 1 1 304 92 215 170
1012 4 2 1 1 122 117 126 326
1013 4 2 1 1 71 314 204 163
1014 4 2 1 1 46 129 221 149
1015 4 2 1 1 246 80 247 328
1016 4 2 1 1 129 45 221 149
1017 4 2 1 1 193 244 208 159
1018 4 2 1 1 72 313 231 162
1019 4 2 1 1 209 77 241 194
1020 4 2 1 1 212 167 154 166
1021 4 2 1 1 26 211 154 166
1022 4 2 1 1 41 198 138 152
1023 4 2 1 1 95 261 249 248
1024 4 2 1 1 292 110 291 286
1025 4 2 1 1 226 204 85 70
1026 4 2 1 1 274 101 250 265
1027 4 2 1 1 107 275 266 271
1028 4 2 1 1 317 91 216 151
1029 4 2 1 1 317 216 90 151
1030 4 2 1 1 203 236 82 73
1031 4 2 1 1 223 208 224 159
1032 4 2 1 1 169 44 235 155
1033 4 2 1 1 187 60 157 194
1034 4 2 1 1 120 21 286 324
1035 4 2 1 1 71 231 313 162
1036 4 2 1 1 177 219 89 66
1037 4 2 1 1 26 211 207 154
1038 4 2 1 1 38 153 188 141
1039 4 2 1 1 52 243 133 207
1040 4 2 1 1 90 200 311 177
1041 4 2 1 1 223 153 40 208
1042 4 2 1 1 132 46 206 176
1043 4 2 1 1 145 179 219 67
1044 4 2 1 1 22 119 261 325
1045 4 2 1 1 205 28 49 225
1046 4 2 1 1 304 215 91 170
1047 4 2 1 1 284 278 282 326
1048 4 2 1 1 93 62 181 148
1049 4 2 1 1 86 226 312 146
1050 4 2 1 1 39 242 208 141
1051 4 2 1 1 154 133 25 189
1052 4 2 1 1 181 237 93 148
1053 4 2 1 1 238 245 210 156
1054 4 2 1 1 117 21 120 324
1055 4 2 1 1 22 123 119 325
1056 4 2 1 1 271 107 275 285
1057 4 2 1 1 260 274 101 250
1058 4 2 1 1 244 157 239 209
1059 4 2 1 1 179 234 87 185
1060 4 2 1 1 247 263 97 246
1061 4 2 1 1 288 112 289 290
1062 4 2 1 1 189 124 5 55
1063 4 2 1 1 124 8 78 243
1064 4 2 1 1 155 34 33 137
1065 4 2 1 1 238 154 245 183
1066 4 2 1 1 184 208 193 239
1067 4 2 1 1 219 234 88 179
1068 4 2 1 1 235 45 130 169
1069 4 2 1 1 245 237 192 167
1070 4 2 1 1 186 57 210 156
1071 4 2 1 1 128 49 50 205
1072 4 2 1 1 169 45 32 149
1073 4 2 1 1 157 193 239 184
1074 4 2 1 1 156 238 245 183
1075 4 2 1 1 237 201 93 148
1076 4 2 1 1 153 38 37 141
1077 4 2 1 1 51 52 133 207
1078 4 2 1 1 305 67 179 68
1079 4 2 1 1 70 69 312 146
1080 4 2 1 1 229 139 42 168
1081 4 2 1 1 81 82 236 316
1082 4 2 1 1 62 61 309 181
1083 4 2 1 1 213 212 211 166
1084 4 2 1 1 218 220 219 145
1085 4 2 1 1 43 34 139 168
1086 4 2 1 1 28 29 134 173
1087 4 2 1 1 204 231 84 71
1088 4 2 1 1 205 128 28 144
1089 4 2 1 1 159 160 223 158
1090 4 2 1 1 72 71 313 162
1091 4 2 1 1 133 25 26 154
1092 4 2 1 1 40 39 208 141
1093 4 2 1 1 219 177 145 66
1094 4 2 1 1 210 186 156 237
1095 4 2 1 1 177 65 90 151
1096 4 2 1 1 154 192 245 183
1097 4 2 1 1 208 239 244 193
1098 4 2 1 1 74 73 316 180
1099 4 2 1 1 237 93 94 309
1100 4 2 1 1 90 91 216 317
1101 4 2 1 1 180 209 187 157
1102 4 2 1 1 245 156 237 210
1103 4 2 1 1 234 87 88 305
1104 4 2 1 1 139 42 43 229
1105 4 2 1 1 80 186 210 240
1106 4 2 1 1 83 203 82 315
1107 4 2 1 1 91 92 215 304
1108 4 2 1 1 72 315 73 147
1109 4 2 1 1 157 244 239 193
1110 4 2 1 1 46 129 45 221
1111 4 2 1 1 146 69 86 185
1112 4 2 1 1 235 45 169 149
1113 4 2 1 1 92 93 201 307
1114 4 2 1 1 192 156 245 183
1115 4 2 1 1 212 213 167 166
1116 4 2 1 1 129 31 32 149
1117 4 2 1 1 257 99 262 268
1118 4 2 1 1 267 282 105 287
1119 4 2 1 1 145 308 66 67
1120 4 2 1 1 134 48 49 225
1121 4 2 1 1 244 209 180 157
1122 4 2 1 1 218 220 145 174
1123 4 2 1 1 204 314 84 85
1124 4 2 1 1 186 80 210 57
1125 4 2 1 1 246 263 256 328
1126 4 2 1 1 88 89 219 308
1127 4 2 1 1 151 64 91 170
1128 4 2 1 1 236 187 209 241
1129 4 2 1 1 306 87 199 185
1130 4 2 1 1 85 226 312 86
1131 4 2 1 1 70 226 204 163
1132 4 2 1 1 317 65 64 151
1133 4 2 1 1 71 204 231 162
1134 4 2 1 1 203 83 231 72
1135 4 2 1 1 35 36 138 152
1136 4 2 1 1 155 202 43 137
1137 4 2 1 1 200 219 89 177
1138 4 2 1 1 307 63 62 148
1139 4 2 1 1 210 186 237 240
1140 4 2 1 1 306 199 86 185
1141 4 2 1 1 144 205 27 166
1142 4 2 1 1 236 203 224 147
1143 4 2 1 1 201 237 212 167
1144 4 2 1 1 224 180 147 159
1145 4 2 1 1 311 65 177 66
1146 4 2 1 1 154 238 243 183
1147 4 2 1 1 208 239 184 188
1148 4 2 1 1 86 87 199 306
1149 4 2 1 1 207 212 245 154
1150 4 2 1 1 208 193 159 153
1151 4 2 1 1 47 232 30 176
1152 4 2 1 1 180 236 224 147
1153 4 2 1 1 26 27 131 166
1154 4 2 1 1 211 131 51 50
1155 4 2 1 1 36 37 140 158
1156 4 2 1 1 92 170 63 148
1157 4 2 1 1 72 231 203 147
1158 4 2 1 1 238 78 243 183
1159 4 2 1 1 46 47 132 206
1160 4 2 1 1 64 304 170 63
1161 4 2 1 1 41 40 223 140
1162 4 2 1 1 232 225 48 150
1163 4 2 1 1 130 32 33 169
1164 4 2 1 1 313 84 83 231
1165 4 2 1 1 213 175 167 166
1166 4 2 1 1 71 70 314 163
1167 4 2 1 1 152 42 35 168
1168 4 2 1 1 138 198 42 152
1169 4 2 1 1 162 71 204 163
1170 4 2 1 1 146 86 199 185
1171 4 2 1 1 145 177 218 174
1172 4 2 1 1 132 30 31 176
1173 4 2 1 1 156 245 237 192
1174 4 2 1 1 176 220 206 174
1175 4 2 1 1 244 224 208 159
1176 4 2 1 1 239 208 242 188
1177 4 2 1 1 189 154 243 183
1178 4 2 1 1 232 136 48 47
1179 4 2 1 1 225 29 48 150
1180 4 2 1 1 78 189 183 55
1181 4 2 1 1 295 297 299 328
1182 4 2 1 1 157 180 244 193
1183 4 2 1 1 220 218 206 174
1184 4 2 1 1 189 78 183 243
1185 4 2 1 1 201 215 148 175
1186 4 2 1 1 177 90 200 151
1187 4 2 1 1 139 34 35 168
1188 4 2 1 1 232 47 206 176
1189 4 2 1 1 176 31 46 149
1190 4 2 1 1 198 160 152 158
1191 4 2 1 1 226 70 146 163
1192 4 2 1 1 234 199 87 185
1193 4 2 1 1 215 201 213 175
1194 4 2 1 1 237 245 212 167
1195 4 2 1 1 231 72 162 147
1196 4 2 1 1 176 232 30 150
1197 4 2 1 1 225 205 28 144
1198 4 2 1 1 215 170 148 175
1199 4 2 1 1 178 145 220 174
1200 4 2 1 1 160 198 223 158
1201 4 2 1 1 218 217 232 174
1202 4 2 1 1 218 232 206 174
1203 4 2 1 1 229 43 139 168
1204 4 2 1 1 202 235 44 155
1205 4 2 1 1 60 157 194 59
1206 4 2 1 1 77 209 76 194
1207 4 2 1 1 176 46 206 149
1208 4 2 1 1 119 123 121 325
1209 4 2 1 1 267 270 266 327
1210 4 2 1 1 147 162 230 160
1211 4 2 1 1 208 184 193 153
1212 4 2 1 1 154 238 245 207
1213 4 2 1 1 237 181 192 167
1214 4 2 1 1 224 244 236 180
1215 4 2 1 1 165 226 146 164
1216 4 2 1 1 125 17 18 264
1217 4 2 1 1 43 34 168 155
1218 4 2 1 1 176 178 220 174
1219 4 2 1 1 147 230 224 159
1220 4 2 1 1 230 147 160 159
1221 4 2 1 1 121 117 120 324
1222 4 2 1 1 263 247 98 295
1223 4 2 1 1 221 206 46 149
1224 4 2 1 1 90 200 89 311
1225 4 2 1 1 296 288 290 116
1226 4 2 1 1 45 235 221 149
1227 4 2 1 1 168 164 229 155
1228 4 2 1 1 253 24 23 118
1229 4 2 1 1 174 217 232 150
1230 4 2 1 1 216 200 90 151
1231 4 2 1 1 202 229 164 155
1232 4 2 1 1 44 45 130 235
1233 4 2 1 1 203 230 224 147
1234 4 2 1 1 214 213 205 144
1235 4 2 1 1 175 148 201 167
1236 4 2 1 1 144 175 213 166
1237 4 2 1 1 177 200 218 172
1238 4 2 1 1 80 12 247 295
1239 4 2 1 1 78 249 8 119
1240 4 2 1 1 172 218 177 174
1241 4 2 1 1 69 68 306 185
1242 4 2 1 1 199 226 86 146
1243 4 2 1 1 233 226 165 164
1244 4 2 1 1 173 29 225 150
1245 4 2 1 1 169 235 190 155
1246 4 2 1 1 185 179 234 191
1247 4 2 1 1 57 9 296 290
1248 4 2 1 1 55 120 5 292
1249 4 2 1 1 75 242 197 58
1250 4 2 1 1 160 161 198 152
1251 4 2 1 1 261 95 251 248
1252 4 2 1 1 110 276 291 286
1253 4 2 1 1 254 103 104 294
1254 4 2 1 1 230 198 223 160
1255 4 2 1 1 282 106 267 105
1256 4 2 1 1 99 257 100 268
1257 4 2 1 1 233 235 190 182
1258 4 2 1 1 58 242 197 188
1259 4 2 1 1 114 277 293 115
1260 4 2 1 1 75 76 239 196
1261 4 2 1 1 196 59 184 58
1262 4 2 1 1 136 29 30 150
1263 4 2 1 1 208 184 153 188
1264 4 2 1 1 238 243 207 154
1265 4 2 1 1 285 271 15 318
1266 4 2 1 1 278 122 20 19
1267 4 2 1 1 198 42 152 168
1268 4 2 1 1 156 237 186 181
1269 4 2 1 1 187 236 209 180
1270 4 2 1 1 272 287 2 142
1271 4 2 1 1 260 319 14 274
1272 4 2 1 1 249 261 53 119
1273 4 2 1 1 173 225 28 144
1274 4 2 1 1 39 7 242 135
1275 4 2 1 1 5 25 124 189
1276 4 2 1 1 213 214 175 144
1277 4 2 1 1 188 6 38 135
1278 4 2 1 1 243 124 8 52
1279 4 2 1 1 187 77 241 195
1280 4 2 1 1 120 292 286 54
1281 4 2 1 1 273 143 1 262
1282 4 2 1 1 27 28 128 144
1283 4 2 1 1 310 74 241 187
1284 4 2 1 1 300 240 94 186
1285 4 2 1 1 181 156 237 192
1286 4 2 1 1 244 209 236 180
1287 4 2 1 1 195 187 77 60
1288 4 2 1 1 188 197 6 135
1289 4 2 1 1 242 7 197 135
1290 4 2 1 1 188 242 197 135
1291 4 2 1 1 114 298 279 113
1292 4 2 1 1 241 310 187 195
1293 4 2 1 1 102 103 252 299
1294 4 2 1 1 217 218 200 172
1295 4 2 1 1 174 172 217 150
1296 4 2 1 1 81 241 11 310
1297 4 2 1 1 300 61 9 186
1298 4 2 1 1 44 43 202 137
1299 4 2 1 1 214 217 172 173
1300 4 2 1 1 10 74 310 187
1301 4 2 1 1 12 240 94 300
1302 4 2 1 1 25 243 124 189
1303 4 2 1 1 38 242 188 135
1304 4 2 1 1 58 197 6 188
1305 4 2 1 1 242 197 7 75
1306 4 2 1 1 21 283 117 20
1307 4 2 1 1 42 41 198 138
1308 4 2 1 1 161 164 229 168
1309 4 2 1 1 187 310 10 195
1310 4 2 1 1 234 199 185 191
1311 4 2 1 1 310 241 11 195
1312 4 2 1 1 190 202 233 164
1313 4 2 1 1 162 228 230 160
1314 4 2 1 1 164 190 202 155
1315 4 2 1 1 269 301 108 109
1316 4 2 1 1 164 229 227 161
1317 4 2 1 1 256 97 263 246
1318 4 2 1 1 289 281 112 288
1319 4 2 1 1 241 77 11 195
1320 4 2 1 1 10 187 195 60
1321 4 2 1 1 266 106 275 107
1322 4 2 1 1 250 101 100 265
1323 4 2 1 1 162 204 228 163
1324 4 2 1 1 42 198 229 168
1325 4 2 1 1 172 171 214 173
1326 4 2 1 1 164 227 163 161
1327 4 2 1 1 204 228 231 162
1328 4 2 1 1 258 23 22 123
1329 4 2 1 1 233 226 199 165
1330 4 2 1 1 202 229 227 164
1331 4 2 1 1 251 258 261 325
1332 4 2 1 1 235 233 222 182
1333 4 2 1 1 217 214 225 173
1334 4 2 1 1 98 102 263 295
1335 4 2 1 1 214 171 175 144
1336 4 2 1 1 283 276 286 324
1337 4 2 1 1 290 288 16 116
1338 4 2 1 1 247 98 13 263
1339 4 2 1 1 296 288 116 115
1340 4 2 1 1 217 172 173 150
1341 4 2 1 1 235 202 190 155
1342 4 2 1 1 171 170 215 175
1343 4 2 1 1 216 151 170 171
1344 4 2 1 1 228 162 161 160
1345 4 2 1 1 113 285 15 318
1346 4 2 1 1 287 2 142 19
1347 4 2 1 1 242 38 39 135
1348 4 2 1 1 243 25 124 52
1349 4 2 1 1 231 228 230 162
1350 4 2 1 1 271 15 107 285
1351 4 2 1 1 14 260 274 101
1352 4 2 1 1 143 24 1 262
1353 4 2 1 1 104 319 14 260
1354 4 2 1 1 241 81 74 310
1355 4 2 1 1 94 61 300 186
1356 4 2 1 1 227 228 163 161
1357 4 2 1 1 227 204 226 163
1358 4 2 1 1 173 171 214 144
1359 4 2 1 1 261 22 53 119
1360 4 2 1 1 234 222 199 191
1361 4 2 1 1 120 286 21 54
1362 4 2 1 1 235 190 182 169
1363 4 2 1 1 146 199 226 165
1364 4 2 1 1 233 227 226 164
1365 4 2 1 1 199 222 233 165
1366 4 2 1 1 222 199 191 165
1367 4 2 1 1 200 216 217 172
1368 4 2 1 1 271 109 15 318
1369 4 2 1 1 227 228 204 163
1370 4 2 1 1 199 146 185 165
1371 4 2 1 1 274 319 14 108
1372 4 2 1 1 215 216 170 171
1373 4 2 1 1 116 288 16 115
1374 4 2 1 1 98 102 13 263
1375 4 2 1 1 272 2 18 142
1376 4 2 1 1 235 202 233 190
1377 4 2 1 1 228 162 163 161
1378 4 2 1 1 263 252 256 328
1379 4 2 1 1 286 292 3 54
1380 4 2 1 1 261 53 4 249
1381 4 2 1 1 143 1 17 273
1382 4 2 1 1 13 247 263 97
1383 4 2 1 1 16 112 288 290
1384 4 2 1 1 95 96 251 248
1385 4 2 1 1 291 111 276 110
1386 4 2 1 1 21 286 3 54
1387 4 2 1 1 4 22 53 261
1388 4 2 1 1 228 229 198 161
1389 4 2 1 1 216 215 214 171
1390 4 2 1 1 227 233 202 164
1391 4 2 1 1 190 165 233 182
1392 4 2 1 1 216 151 171 172
1393 4 2 1 1 217 218 172 174
1394 4 2 1 1 222 191 178 182
1395 4 2 1 1 228 227 229 161
1396 4 2 1 1 262 1 273 99
1397 4 2 1 1 2 105 287 272
1398 4 2 1 1 165 222 233 182
1399 4 2 1 1 190 233 165 164
1400 4 2 1 1 4 261 249 95
1401 4 2 1 1 3 110 292 286
1402 4 2 1 1 96 97 256 246
1403 4 2 1 1 112 281 289 111
1404 4 2 1 1 165 191 222 182
1405 4 2 1 1 199 185 191 165
1406 4 2 1 1 11 10 310 195
1407 4 2 1 1 197 7 6 135
1408 4 2 1 1 12 98 247 295
1409 4 2 1 1 249 53 8 119
1410 4 2 1 1 290 9 296 116
1411 4 2 1 1 292 120 5 54
1412 4 2 1 1 325 118 126 323
1413 4 2 1 1 325 126 118 123
1414 4 2 1 1 328 251 255 256
1415 4 2 1 1 328 255 251 320
1416 4 2 1 1 325 55 320 324
1417 4 2 1 1 325 320 55 78
1418 4 2 1 1 327 275 271 266
1419 4 2 1 1 271 275 327 321
1420 4 2 1 1 271 269 327 266
1421 4 2 1 1 327 269 271 321
1422 4 2 1 1 265 257 100 250
1423 4 2 1 1 265 100 257 268
1424 4 2 1 1 79 328 56 80
1425 4 2 1 1 57 56 328 80
1426 4 2 1 1 57 328 56 322
1427 4 2 1 1 143 264 17 125
1428 4 2 1 1 17 264 143 273
1429 4 2 1 1 260 294 104 319
1430 4 2 1 1 104 294 260 254
1431 4 2 1 1 328 102 252 299
1432 4 2 1 1 328 252 102 263
1433 4 2 1 1 149 235 182 169
1434 4 2 1 1 213 167 201 212
1435 4 2 1 1 201 167 213 175
1436 4 2 1 1 178 220 149 176
1437 4 2 1 1 206 220 149 221
1438 4 2 1 1 206 149 220 176
1439 4 2 1 1 177 219 218 200
1440 4 2 1 1 218 219 177 145
1441 4 2 1 1 219 179 220 234
1442 4 2 1 1 219 220 179 145
1443 4 2 1 1 178 179 220 145
1444 4 2 1 1 176 232 174 206
1445 4 2 1 1 174 232 176 150
1446 4 2 1 1 205 166 213 211
1447 4 2 1 1 213 166 205 144
1448 4 2 1 1 236 147 73 203
1449 4 2 1 1 73 147 236 180
1450 4 2 1 1 155 229 43 202
1451 4 2 1 1 155 43 229 168
1452 4 2 1 1 237 148 167 201
1453 4 2 1 1 167 148 237 181
1454 4 2 1 1 158 198 41 152
1455 4 2 1 1 158 41 198 223
1456 4 2 1 1 151 200 172 216
1457 4 2 1 1 151 172 200 177
1458 4 2 1 1 225 144 214 205
1459 4 2 1 1 214 144 225 173
1460 4 2 1 1 226 164 163 146
1461 4 2 1 1 163 164 226 227
1462 4 2 1 1 216 170 91 215
1463 4 2 1 1 91 170 216 151
1464 4 2 1 1 150 225 217 232
1465 4 2 1 1 150 217 225 173
1466 4 2 1 1 147 231 230 162
1467 4 2 1 1 147 230 231 203
1468 4 2 1 1 214 175 215 213
1469 4 2 1 1 215 175 214 171
1470 4 2 1 1 172 214 216 217
1471 4 2 1 1 172 216 214 171
1472 4 2 1 1 168 198 161 152
1473 4 2 1 1 168 161 198 229
1474 4 2 1 1 215 148 92 201
1475 4 2 1 1 92 148 215 170
1476 4 2 1 1 159 230 223 160
1477 4 2 1 1 159 223 230 224
1478 4 2 1 1 160 228 198 161
1479 4 2 1 1 160 198 228 230
1480 4 2 1 1 244 159 180 224
1481 4 2 1 1 180 159 244 193
1482 4 2 1 1 167 245 154 192
1483 4 2 1 1 167 154 245 212
1484 4 2 1 1 324 284 280 320
1485 4 2 1 1 280 284 324 276
1486 4 2 1 1 280 322 324 320
1487 4 2 1 1 324 322 280 276
1488 4 2 1 1 328 56 320 79
1489 4 2 1 1 328 320 56 322
1490 4 2 1 1 220 149 222 178
1491 4 2 1 1 220 222 149 221
1492 4 2 1 1 182 222 149 178
1493 4 2 1 1 179 220 191 178
1494 4 2 1 1 179 191 220 234
1495 4 2 1 1 222 191 220 178
1496 4 2 1 1 222 220 191 234
1497 4 2 1 1 222 149 235 182
1498 4 2 1 1 222 235 149 221
$EndElements
$Periodic
1
2 8 6
Affine 1 0 0 0.008 0 1 0 0 0 0 1 0 0 0 0 1
30
2 1
3 4
15 14
16 13
19 24
20 23
21 22
105 99
106 100
107 101
110 95
111 96
112 97
113 104
114 103
115 102
275 250
276 251
277 252
278 253
279 254
280 255
281 256
282 257
283 258
284 259
285 260
286 261
287 262
288 263
$EndPeriodic
